<svg viewBox="0 0 1374 779.32" xmlns="http://www.w3.org/2000/svg" xmlns:xlink="http://www.w3.org/1999/xlink" id="Layer_1" overflow="hidden"><defs><clipPath id="clippath"><rect x="0.33" y="0" width="1373.13" height="778.76" fill="none"/></clipPath></defs><g clip-path="url(#clippath)"><g><path d="M-279.58 954.63C-279.58 570.62 2 289.09 401.32 289.09 736.69 289.09 987.54 488.75 1054.1 780.59L808.35 780.59C746.9 619.26 598.43 514.38 401.32 514.38 140.21 514.38-33.83 698.63-33.83 954.63-33.83 1210.63 140.21 1394.88 401.32 1394.88 598.43 1394.88 746.9 1290 808.35 1128.67L1054.1 1128.67C987.55 1420.51 736.69 1620.17 401.32 1620.17 2 1620.17-279.58 1338.64-279.58 954.63Z" fill="#FFFFFF" fill-opacity="0.3"/><path d="M1262.46-176.02C1330.94-71.15 1420.49 18.4 1525.35 86.88 1420.48 155.36 1330.93 244.91 1262.46 349.78 1193.98 244.91 1104.42 155.36 999.55 86.88 1104.42 18.4 1193.98-71.15 1262.46-176.02M1262.46-582.67C1220.63-232.51 943.07 45.06 592.91 86.88 943.07 128.7 1220.64 406.26 1262.46 756.43 1304.27 406.26 1581.85 128.7 1932.01 86.88 1581.85 45.06 1304.27-232.5 1262.46-582.67L1262.46-582.67Z" fill="#FFFFFF" fill-opacity="0.3"/></g></g></svg>