<svg viewBox="0 0 615.44 148.51" xmlns="http://www.w3.org/2000/svg" xmlns:xlink="http://www.w3.org/1999/xlink" id="Layer_1" overflow="hidden"><defs/><g><g><path d="M0 97.64 13.31 97.64C13.59 103.32 18.85 107.34 28.42 107.34 37.99 107.34 43.53 103.04 43.53 97.64 43.53 91.13 36.32 90.29 27.73 89.19 15.81 87.66 1.4 85.45 1.4 69.79 1.4 56.35 11.93 47.2 28.29 47.2 44.65 47.2 54.76 56.48 55.04 68.27L42.01 68.27C41.6 63 36.74 59.12 28.43 59.12 19.7 59.12 14.71 63.28 14.71 68.68 14.71 75.19 21.92 75.89 30.37 77 42.29 78.52 56.84 80.74 56.84 96.4 56.84 110.26 45.61 119.27 28.43 119.27 11.25 119.27 0.41 110.12 0 97.64Z" fill="#44546A"/><path d="M151.33 81.84C151.33 58.97 164.91 47.19 185.15 47.19 205.39 47.19 218.97 58.83 218.97 81.84L218.97 117.46 205.8 117.46 205.8 81.84C205.8 67.01 197.62 59.39 185.15 59.39 172.68 59.39 164.5 67.01 164.5 81.84L164.5 117.46 151.34 117.46 151.34 81.84Z" fill="#44546A"/><path d="M229.77 83.78C229.77 62.3 245.01 47.19 266.77 47.19 288.53 47.19 303.22 61.88 303.22 83.78L303.22 117.46 291.16 117.46 291.16 102.49C286.59 113.58 276.47 119.26 264.55 119.26 246.67 119.26 229.76 106.37 229.76 83.78ZM290.19 83.23C290.19 69.37 280.76 59.39 266.63 59.39 252.5 59.39 243.07 69.37 243.07 83.23 243.07 97.09 252.49 107.07 266.63 107.07 280.77 107.07 290.19 97.09 290.19 83.23Z" fill="#44546A"/><path d="M316.8 83.78C316.8 61.47 332.04 47.19 353.25 47.19 374.46 47.19 390.25 62.16 390.25 83.64 390.25 106.37 373.34 119.26 355.46 119.26 344.37 119.26 334.95 114.27 329.96 105.4L329.96 146.71 316.79 146.71 316.79 83.78ZM376.94 83.23C376.94 69.37 367.52 59.39 353.38 59.39 339.24 59.39 329.96 69.37 329.96 83.23 329.96 97.09 339.38 107.07 353.38 107.07 367.38 107.07 376.94 97.09 376.94 83.23Z" fill="#44546A"/><path d="M401.05 91.55 401.05 24.74 414.21 24.74 414.21 48.99 440.35 48.99 440.35 61.05 414.21 61.05 414.21 91.55C414.21 102.36 419.89 107.07 428.49 107.07 437.09 107.07 442.9 102.5 442.9 91.55L442.9 90.02 455.93 90.02 455.93 91.55C455.93 110.12 444.84 119.27 428.49 119.27 412.14 119.27 401.05 110.12 401.05 91.55Z" fill="#44546A"/><path d="M466.74 28.9C466.74 23.63 470.62 19.75 475.89 19.75 481.16 19.75 485.04 23.63 485.04 28.9 485.04 34.17 481.16 38.19 475.89 38.19 470.62 38.19 466.74 34.17 466.74 28.9ZM469.37 49 482.54 49 482.54 117.47 469.37 117.47 469.37 49Z" fill="#44546A"/><path d="M495.7 83.23C495.7 62.44 510.94 47.2 532.56 47.2 550.72 47.2 564.3 58.01 567.9 73.81L554.59 73.81C551.26 65.08 543.22 59.4 532.55 59.4 518.41 59.4 508.99 69.38 508.99 83.24 508.99 97.1 518.41 107.08 532.55 107.08 543.22 107.08 551.26 101.4 554.59 92.67L567.9 92.67C564.3 108.47 550.72 119.28 532.56 119.28 510.94 119.28 495.7 104.04 495.7 83.25Z" fill="#44546A"/></g><path d="M122.37 49 122.37 84.06C122.37 98.61 113.92 106.37 101.72 106.37 89.52 106.37 81.07 98.89 81.07 84.06L81.07 49 67.9 49 67.9 84.06C67.9 108.04 82.45 118.71 99.5 118.71 109.76 118.71 118.07 114 122.37 105.54L122.37 115.38C122.37 130.9 114.19 137 101.44 137 101.31 137 80.6 137 80.6 137L80.6 148.5C80.6 148.5 101.32 148.5 101.44 148.5 120.43 148.5 135.54 138.94 135.54 115.1L135.54 49 122.37 49Z" fill="#44546A"/></g><path d="M579.19 22.02C582.9 27.7 587.75 32.55 593.42 36.25 587.74 39.96 582.89 44.81 579.19 50.48 575.48 44.8 570.63 39.95 564.96 36.25 570.64 32.54 575.49 27.69 579.19 22.02M579.19 0C576.93 18.96 561.9 33.99 542.94 36.25 561.9 38.51 576.93 53.54 579.19 72.5 581.45 53.54 596.48 38.51 615.44 36.25 596.48 33.99 581.45 18.96 579.19 0L579.19 0Z" fill="#FC4100"/></svg>