<svg viewBox="0 0 35.75 35.75" xmlns="http://www.w3.org/2000/svg" xmlns:xlink="http://www.w3.org/1999/xlink" id="Layer_2" overflow="hidden"><defs></defs><g id="Layer_1-2"><circle cx="17.88" cy="17.88" r="16.38" stroke="#01A9DB" stroke-width="3" stroke-miterlimit="10" fill="#01A9DB"/><path d="M17.88 0.95C8.53 0.95 0.95 8.53 0.95 17.88 0.95 27.23 8.53 34.81 17.88 34.81 27.23 34.81 34.81 27.23 34.81 17.88 34.81 8.53 27.22 0.95 17.88 0.95ZM27.49 24.35C24.78 26.83 19.12 31.14 18.24 31.82L17.92 32.05 17.61 31.82C16.74 31.16 11.06 26.84 8.35 24.35 7.48 23.56 6.62 22.54 5.87 21.39 8.11 21.57 10.63 21.82 12.78 21.8 13.32 21.81 13.81 21.48 14.05 21.22 14.9 20.29 15.29 19.35 15.77 18.34 15.82 18.22 15.87 18.1 15.92 17.98L17.19 27.44C17.21 27.61 17.38 27.77 17.63 27.84 17.98 27.93 18.37 27.8 18.5 27.56 18.98 26.65 19.52 25.73 20.09 24.84 20.91 23.73 21.66 22.26 23.13 21.6 25.19 21.46 27.47 21.31 29.52 21.13 27.47 20.95 25.19 20.8 23.12 20.66 21.26 20.72 19.46 23.38 18.28 25.4 17.82 21.98 16.92 15.28 16.92 15.28 16.86 14.76 15.75 14.7 15.59 15.22 14.91 17.05 14.31 19.05 12.96 20.68 12.88 20.76 12.79 20.83 12.74 20.86 12.72 20.87 12.74 20.86 12.74 20.86 10.58 20.84 8.05 21.1 5.81 21.28 4.42 19.11 3.46 16.51 3.73 14.09 4.01 11.63 5.46 9.64 8.05 8.16 12.45 5.65 16.5 8.36 17.92 9.52 19.34 8.36 23.4 5.65 27.79 8.16 30.38 9.64 31.83 11.64 32.11 14.09 32.53 17.84 30.01 22.03 27.48 24.35ZM12.75 20.86C12.75 20.86 12.81 20.86 12.78 20.86 12.78 20.86 12.76 20.86 12.75 20.86Z" fill="#172A44"/></g></svg>