<svg viewBox="0 0 64 64" xmlns="http://www.w3.org/2000/svg" xmlns:xlink="http://www.w3.org/1999/xlink" id="a" overflow="hidden"><path d="M31 36C26.03 36 22 40.03 22 45 22 45.18 21.97 45.36 21.92 45.52 24.59 47.08 27.68 48 31 48 34.32 48 37.41 47.09 40.08 45.52 40.03 45.35 40 45.18 40 45 40 40.03 35.97 36 31 36Z" fill="#FFFFFF"/><circle cx="31" cy="26" r="6" fill="#FFFFFF"/><path d="M24.61 33.69C22.41 31.86 21 29.09 21 26 21 20.48 25.48 16 31 16 36.52 16 41 20.48 41 26 41 29.09 39.6 31.85 37.39 33.69 40.69 35.56 43.08 38.82 43.78 42.67 47.01 39.42 49 34.94 49 30 49 20.06 40.94 12 31 12 21.06 12 13 20.06 13 30 13 34.94 14.99 39.42 18.22 42.67 18.92 38.81 21.31 35.55 24.61 33.69Z" fill="#FFBA90"/><path d="M59.41 51.58 49.59 41.76C51.75 38.36 53 34.33 53 30 53 17.85 43.15 8 31 8 18.85 8 9 17.85 9 30 9 42.15 18.85 52 31 52 34.81 52 38.39 51.03 41.51 49.33L51.59 59.41C51.96 59.79 52.47 60 53 60 53.53 60 54.04 59.79 54.41 59.41L59.41 54.41 59.41 54.41C60.19 53.63 60.19 52.36 59.41 51.58Z" fill="#DD7A01"/><path d="M13 30C13 20.06 21.06 12 31 12 40.94 12 49 20.06 49 30 49 34.94 47.01 39.42 43.78 42.67 43.08 38.81 40.69 35.55 37.39 33.69 39.59 31.86 41 29.09 41 26 41 20.48 36.52 16 31 16 25.48 16 21 20.48 21 26 21 29.09 22.4 31.85 24.61 33.69 21.31 35.56 18.92 38.82 18.22 42.67 14.99 39.42 13 34.94 13 30Z" fill="#FFBA90"/><circle cx="31" cy="26" r="6" fill="#FFFFFF"/><path d="M31 48C27.68 48 24.59 47.09 21.92 45.52 21.97 45.35 22 45.18 22 45 22 40.03 26.03 36 31 36 35.97 36 40 40.03 40 45 40 45.18 40.03 45.36 40.08 45.52 37.41 47.08 34.32 48 31 48Z" fill="#FFFFFF"/><path d="M53 55.17 44.89 47.06 44.89 47.06C45.27 46.75 45.64 46.42 46.01 46.08 46.04 46.05 46.07 46.02 46.1 45.99 46.45 45.66 46.8 45.31 47.13 44.96L47.13 44.96 55.17 53 53 55.17Z" fill="#DD7A01"/><path d="M47.13 44.96C46.8 45.32 46.46 45.66 46.1 45.99 46.07 46.02 46.04 46.05 46.01 46.08 45.65 46.42 45.28 46.74 44.89 47.06L44.89 47.06 53 55.17 55.17 53 47.13 44.96 47.13 44.96Z" fill="#FFFFFF"/><path d="M46.01 46.08C45.65 46.42 45.28 46.74 44.89 47.06" stroke="#FFFFFF" stroke-width="0" stroke-linecap="round" stroke-linejoin="round" fill="none"/><path d="M47.13 44.96C46.8 45.32 46.46 45.66 46.1 45.99" stroke="#FFFFFF" stroke-width="0" stroke-linecap="round" stroke-linejoin="round" fill="none"/></svg>