<svg width="285" height="72" viewBox="0 0 285 72" xmlns="http://www.w3.org/2000/svg" xmlns:xlink="http://www.w3.org/1999/xlink" fill="none" overflow="hidden"><mask maskUnits="userSpaceOnUse" x="3" y="0" width="67" height="68" id="mask0_11_1284"><path d="M31.1237 65.8669C29.5695 68.3272 25.9822 68.329 24.4256 65.8703L3.85088 33.3734C2.18044 30.7351 4.07614 27.2911 7.19887 27.2911L27.7636 27.2911 27.7743 5.94092C27.776 2.65936 30.4367 0 33.7182 0L65.5428 0C68.6638 0 70.5598 3.44038 68.8929 6.07894L31.1237 65.8669Z" fill="#FFFFFF" fill-rule="evenodd" clip-rule="evenodd"/></mask><path d="M166.506 34.9435 163.359 34.9435 163.359 30.2905 166.506 30.2905 166.506 28.8307C166.506 27.523 166.727 26.2761 167.168 25.09 167.609 23.9039 168.247 22.8775 169.084 22.0108 169.92 21.1441 170.939 20.4522 172.14 19.9352 173.341 19.4182 174.702 19.1597 176.223 19.1597 177.957 19.1597 179.546 19.441 180.99 20.0036 182.435 20.5662 183.796 21.2733 185.073 22.1248L182.655 26.6867C181.864 25.9872 180.937 25.4246 179.872 24.9988 178.808 24.573 177.728 24.3601 176.634 24.3601 175.265 24.3601 174.254 24.7859 173.6 25.6374 172.946 26.489 172.619 27.4774 172.619 28.6026L172.619 30.2905 185.438 30.2905 185.438 52.917 179.325 52.917 179.325 34.9435 172.619 34.9435 172.619 52.917 166.506 52.917 166.506 34.9435ZM153.414 19.616 153.414 25.6832 159.526 25.6832 159.526 19.616 153.414 19.616ZM93.9277 45.0253 85.1691 20.5283 78.5544 20.5283 91.2819 52.9172 96.5736 52.9172 109.21 20.5283 102.595 20.5283 93.9277 45.0253ZM114.319 52.3923C115.87 53.0461 117.603 53.373 119.519 53.373 122.196 53.373 124.499 52.7876 126.431 51.6167 128.362 50.4459 129.768 48.9481 130.65 47.1234L125.404 45.6636C125.009 46.6368 124.271 47.4199 123.192 48.0129 122.112 48.6059 120.964 48.9025 119.747 48.9025 118.957 48.9025 118.196 48.7656 117.467 48.4919 116.737 48.2182 116.083 47.8228 115.505 47.3058 114.927 46.7888 114.456 46.1654 114.091 45.4355 113.726 44.7056 113.498 43.8693 113.407 42.9265L131.882 42.9265C131.943 42.6832 131.981 42.3791 131.996 42.0141 132.011 41.6492 132.019 41.269 132.019 40.8737 132.019 39.2618 131.737 37.7108 131.175 36.2206 130.612 34.7304 129.791 33.4227 128.711 32.2975 127.632 31.1722 126.324 30.2751 124.788 29.606 123.252 28.9369 121.511 28.6024 119.565 28.6024 117.619 28.6024 115.862 28.9369 114.296 29.606 112.73 30.2751 111.399 31.1798 110.305 32.3203 109.21 33.4607 108.373 34.7836 107.796 36.2891 107.218 37.7945 106.929 39.3987 106.929 41.1018 106.929 42.744 107.225 44.3102 107.818 45.8004 108.411 47.2906 109.255 48.5983 110.35 49.7236 111.445 50.8488 112.768 51.7384 114.319 52.3923ZM125.724 38.958C125.571 37.1637 124.91 35.7267 123.739 34.6471 122.568 33.5675 121.147 33.0277 119.474 33.0277 118.653 33.0277 117.885 33.1721 117.17 33.461 116.455 33.7499 115.824 34.1529 115.277 34.6699 114.73 35.1869 114.281 35.8104 113.931 36.5402 113.582 37.2701 113.376 38.076 113.315 38.958L125.724 38.958ZM145.02 35.3766C146.48 34.6923 148.137 34.335 149.992 34.3045L149.992 28.7391C149.84 28.7087 149.681 28.6935 149.513 28.6935L148.761 28.6935C148.122 28.6935 147.461 28.8228 146.776 29.0813 146.092 29.3398 145.415 29.7123 144.746 30.1989 144.077 30.6855 143.454 31.2557 142.876 31.9096 142.298 32.5635 141.796 33.3009 141.371 34.1221L141.371 29.0128 135.76 29.0128 135.76 52.9167 141.872 52.9167 141.872 38.4558C142.511 37.0872 143.56 36.0608 145.02 35.3766ZM153.414 52.9174 153.414 29.0135 159.526 29.0135 159.526 52.9174 153.414 52.9174ZM194.242 52.8028C195.246 53.183 196.325 53.373 197.481 53.373 199.214 53.373 200.841 53.0081 202.362 52.2782 203.883 51.5483 205.175 50.4839 206.239 49.0849L206.376 50.4079C206.528 51.2594 206.916 51.9437 207.54 52.4607 208.163 52.9777 209.053 53.2362 210.208 53.2362 210.969 53.2362 211.866 53.1297 212.9 52.9169L212.9 47.7164C212.383 47.686 212.01 47.5339 211.782 47.2602 211.554 46.9865 211.44 46.5303 211.44 45.8917L211.44 38.4559C211.44 35.2626 210.49 32.8221 208.589 31.1342 206.688 29.4463 204.019 28.6024 200.583 28.6024 197.025 28.6024 193.71 29.6212 190.638 31.6588L192.508 35.5364C193.786 34.6544 195.033 33.9853 196.249 33.5292 197.466 33.073 198.712 32.8449 199.99 32.8449 201.754 32.8449 203.084 33.2706 203.981 34.1222 204.879 34.9737 205.327 36.1902 205.327 37.7716L205.327 39.1402C204.536 38.8057 203.632 38.5472 202.613 38.3647 201.594 38.1822 200.552 38.091 199.488 38.091 197.998 38.091 196.629 38.281 195.382 38.6612 194.135 39.0413 193.063 39.566 192.166 40.235 191.269 40.9041 190.57 41.7176 190.068 42.6756 189.566 43.6336 189.315 44.6752 189.315 45.8004 189.315 46.8953 189.52 47.8989 189.931 48.8112 190.342 49.7236 190.912 50.5219 191.642 51.2062 192.372 51.8905 193.238 52.4227 194.242 52.8028ZM199.214 48.9029C200.248 48.9029 201.229 48.7204 202.156 48.3555 203.084 47.9905 203.806 47.5039 204.323 46.8957 204.992 46.3787 205.327 45.8009 205.327 45.1622L205.327 42.4251C204.597 42.1514 203.806 41.9309 202.955 41.7637 202.103 41.5964 201.282 41.5128 200.491 41.5128 198.91 41.5128 197.617 41.8701 196.614 42.5848 195.61 43.2995 195.108 44.2042 195.108 45.2991 195.108 46.3331 195.504 47.1922 196.295 47.8765 197.085 48.5608 198.058 48.9029 199.214 48.9029ZM225.855 52.1417C227.285 52.9628 228.912 53.3734 230.736 53.3734 232.318 53.3734 233.793 53.054 235.161 52.4154 236.53 51.7767 237.716 50.9024 238.719 49.7923 239.723 48.6823 240.506 47.3822 241.069 45.892 241.631 44.4018 241.913 42.79 241.913 41.0565 241.913 39.3838 241.662 37.7872 241.16 36.2666 240.658 34.746 239.944 33.4231 239.016 32.2978 238.088 31.1726 236.986 30.2754 235.709 29.6063 234.431 28.9373 233.017 28.6027 231.466 28.6027 229.611 28.6027 227.992 29.0057 226.608 29.8116 225.224 30.6175 224.107 31.7504 223.255 33.2102L223.255 19.616 217.142 19.616 217.142 52.9172 222.479 52.9172 222.479 48.7659C223.301 50.1953 224.426 51.3205 225.855 52.1417ZM229.048 48.1728C230.022 48.1728 230.919 47.9828 231.74 47.6026 232.561 47.2225 233.26 46.7131 233.838 46.0744 234.416 45.4357 234.865 44.6907 235.184 43.8391 235.503 42.9876 235.663 42.0752 235.663 41.102 235.663 40.1288 235.511 39.2013 235.207 38.3193 234.903 37.4374 234.469 36.6619 233.907 35.9928 233.344 35.3237 232.683 34.7915 231.922 34.3962 231.162 34.0008 230.326 33.8031 229.413 33.8031 228.045 33.8031 226.821 34.2517 225.741 35.1489 224.661 36.046 223.833 37.1485 223.255 38.4562L223.255 44.1584C223.468 44.7667 223.779 45.3141 224.19 45.8007 224.601 46.2873 225.064 46.7054 225.581 47.0552 226.098 47.4049 226.661 47.6786 227.269 47.8763 227.878 48.074 228.471 48.1728 229.048 48.1728ZM252.131 19.616 246.019 19.616 246.019 47.3974C246.019 49.2829 246.543 50.7351 247.592 51.7539 248.642 52.7727 250.124 53.2821 252.04 53.2821 252.922 53.2821 253.91 53.1757 255.005 52.9628 256.1 52.7499 257.058 52.4458 257.879 52.0504L257.058 47.3974C256.663 47.5798 256.245 47.7319 255.804 47.8535 255.363 47.9752 254.96 48.036 254.595 48.036 253.804 48.036 253.196 47.7927 252.77 47.3061 252.344 46.8195 252.131 46.1353 252.131 45.2533L252.131 19.616ZM271.61 53.373C269.694 53.373 267.961 53.0461 266.41 52.3923 264.859 51.7384 263.536 50.8488 262.441 49.7236 261.346 48.5983 260.502 47.2906 259.909 45.8004 259.316 44.3102 259.02 42.744 259.02 41.1018 259.02 39.3987 259.308 37.7945 259.886 36.2891 260.464 34.7836 261.3 33.4607 262.395 32.3203 263.49 31.1798 264.821 30.2751 266.387 29.606 267.953 28.9369 269.709 28.6024 271.656 28.6024 273.602 28.6024 275.343 28.9369 276.879 29.606 278.415 30.2751 279.722 31.1722 280.802 32.2975 281.882 33.4227 282.703 34.7304 283.265 36.2206 283.828 37.7108 284.109 39.2618 284.109 40.8737 284.109 41.269 284.102 41.6492 284.087 42.0141 284.071 42.3791 284.033 42.6832 283.973 42.9265L265.497 42.9265C265.589 43.8693 265.817 44.7056 266.182 45.4355 266.546 46.1654 267.018 46.7888 267.596 47.3058 268.174 47.8228 268.827 48.2182 269.557 48.4919 270.287 48.7656 271.047 48.9025 271.838 48.9025 273.055 48.9025 274.203 48.6059 275.282 48.0129 276.362 47.4199 277.099 46.6368 277.495 45.6636L282.741 47.1234C281.859 48.9481 280.452 50.4459 278.521 51.6167 276.59 52.7876 274.286 53.373 271.61 53.373ZM275.83 34.6471C277.001 35.7267 277.663 37.1637 277.815 38.958L265.407 38.958C265.467 38.076 265.673 37.2701 266.022 36.5402 266.372 35.8104 266.821 35.1869 267.368 34.6699 267.915 34.1529 268.547 33.7499 269.261 33.461 269.976 33.1721 270.744 33.0277 271.565 33.0277 273.238 33.0277 274.659 33.5675 275.83 34.6471Z" fill="#FFFFFF" fill-rule="evenodd" clip-rule="evenodd"/><path d="M31.1237 65.8669C29.5695 68.3272 25.9822 68.329 24.4256 65.8703L3.85088 33.3734C2.18044 30.7351 4.07614 27.2911 7.19887 27.2911L27.7636 27.2911 27.7743 5.94092C27.776 2.65936 30.4367 0 33.7182 0L65.5428 0C68.6638 0 70.5598 3.44038 68.8929 6.07894L31.1237 65.8669Z" fill="#6CEECB" fill-rule="evenodd" clip-rule="evenodd"/><g mask="url(#mask0_11_1284)"><rect x="2.87085" y="27.2913" width="24.9062" height="43.1822" fill="#35BC98"/><path d="M19.4851 27.2913 27.7774 27.2913 27.7774 70.4735 19.4851 27.2913Z" fill="#1C9172" fill-rule="evenodd" clip-rule="evenodd"/></g></svg>