<svg viewBox="0 0 64 64" xmlns="http://www.w3.org/2000/svg" xmlns:xlink="http://www.w3.org/1999/xlink" id="a" overflow="hidden"><defs/><path d="M34.63 12.71C22.12 11.35 10.77 19.6 9.33 31.08 8.68 36.31 10.17 41.53 13.54 45.78 17.29 50.51 23.04 53.62 29.36 54.3 41.87 55.66 53.22 47.41 54.66 35.93 55.31 30.7 53.82 25.48 50.45 21.23 46.7 16.5 40.94 13.39 34.63 12.71Z" fill="#FFFFFF"/><path d="M32 51.24C20.96 51.24 11.98 43.58 11.98 34.17 11.98 28.75 15.03 23.6 20.16 20.4 20.99 19.88 22.06 20.06 22.67 20.81 22.69 20.84 25.16 23.81 27.96 24.7 28.46 24.86 28.94 24.97 29.39 25.06 28.04 22.99 26.92 20.54 27.61 18.79 27.97 17.89 28.74 17.31 29.68 17.21 30.45 17.13 31.23 17.09 32.01 17.09 43.05 17.09 52.03 24.75 52.03 34.16 52.03 43.57 43.06 51.23 32.01 51.23Z" fill="#FFFFFF"/><path d="M42.74 24.32C43.54 25.63 44.01 26.89 44.21 27.86 44.43 28.9 43.76 29.92 42.72 30.14 42.59 30.17 42.45 30.18 42.33 30.18 41.44 30.18 40.64 29.56 40.45 28.66 40.38 28.37 38.96 22.52 31.67 21.31 32.13 22.29 33.04 23.78 34.73 25.72 35.17 26.22 35.32 26.92 35.12 27.56 34.92 28.2 34.41 28.69 33.75 28.85 33.44 28.93 30.61 29.59 26.8 28.38 24.78 27.73 22.99 26.43 21.71 25.29 20.67 26.33 21.12 27.61 21.32 28.02 21.76 28.97 21.36 30.12 20.41 30.58 20.14 30.71 19.85 30.77 19.57 30.77 18.87 30.77 18.19 30.38 17.86 29.71 17.7 29.38 17.55 28.98 17.43 28.53 16.42 30.27 15.86 32.19 15.86 34.18 15.86 41.47 23.11 47.4 32.03 47.4 40.95 47.4 48.2 41.47 48.2 34.18 48.2 30.26 46.09 26.75 42.78 24.33L42.78 24.33Z" fill="#0D9DDA"/><path d="M43.98 39.17C43.75 40.41 42.92 41.26 41.67 41.38 39.96 41.54 38.24 41.63 36.52 41.66 35.14 41.69 34.16 41.06 33.77 39.66 33.4 38.37 33.03 37.08 32.6 35.8 32.51 35.53 32.22 35.33 32.02 35.1 31.83 35.33 31.53 35.53 31.44 35.8 31.02 37.08 30.64 38.37 30.27 39.66 29.88 41.07 28.89 41.69 27.52 41.66 25.81 41.63 24.08 41.54 22.37 41.38 21.12 41.26 20.28 40.41 20.06 39.17 19.83 37.91 19.68 36.64 19.45 35.39 19.32 34.73 19.58 34.27 20.1 33.94 20.38 33.77 20.67 33.59 20.97 33.47 23.42 32.47 25.93 32.5 28.43 33.17 29.62 33.49 30.81 33.73 32 33.74 33.19 33.74 34.38 33.49 35.57 33.17 38.07 32.5 40.59 32.47 43.03 33.47 43.34 33.6 43.63 33.76 43.9 33.94 44.43 34.28 44.67 34.72 44.55 35.39 44.32 36.64 44.17 37.92 43.94 39.17L43.98 39.17Z" fill="#0D9DDA"/><path d="M53.47 18.83C52.54 17.66 51.5 16.57 50.38 15.58 52.19 14.78 53.46 12.97 53.46 10.86 53.46 8 51.15 5.69 48.29 5.69 45.43 5.69 43.12 8 43.12 10.86 43.12 10.91 43.12 10.96 43.14 11 40.6 9.91 37.87 9.18 35.05 8.87 30.02 8.32 25.16 9.12 20.87 10.96 20.87 10.92 20.87 10.89 20.87 10.85 20.87 7.99 18.56 5.68 15.7 5.68 12.84 5.68 10.53 7.99 10.53 10.85 10.53 12.95 11.78 14.74 13.58 15.56 9.24 19.41 6.25 24.63 5.51 30.59 4.73 36.85 6.51 43.09 10.52 48.16 14.9 53.7 21.61 57.33 28.95 58.13 29.99 58.25 31.03 58.3 32.06 58.3 45.38 58.3 56.91 49 58.48 36.41 59.26 30.15 57.48 23.91 53.47 18.84L53.47 18.82Z" fill="#032D60"/><path d="M54.66 35.93C53.23 47.42 41.87 55.66 29.36 54.3 23.04 53.62 17.27 50.51 13.54 45.78 10.17 41.52 8.68 36.29 9.33 31.08 10.76 19.59 22.12 11.35 34.63 12.71 40.95 13.39 46.72 16.5 50.45 21.23 53.82 25.49 55.31 30.72 54.66 35.93Z" fill="#FFFFFF"/><path d="M32 17.1C31.22 17.1 30.44 17.14 29.67 17.22 28.74 17.32 27.96 17.9 27.6 18.8 26.91 20.55 28.02 23 29.38 25.07 28.94 24.99 28.46 24.88 27.95 24.71 25.16 23.82 22.69 20.85 22.66 20.82 22.04 20.07 20.97 19.89 20.15 20.41 15.03 23.62 11.97 28.76 11.97 34.18 11.97 43.6 20.94 51.25 31.99 51.25 43.04 51.25 52.01 43.59 52.01 34.18 52.01 24.77 43.04 17.11 31.99 17.11Z" fill="#032D60"/><path d="M32 47.39C23.08 47.39 15.83 41.46 15.83 34.17 15.83 32.18 16.39 30.25 17.4 28.52 17.52 28.97 17.67 29.38 17.83 29.7 18.17 30.37 18.84 30.76 19.54 30.76 19.82 30.76 20.11 30.7 20.38 30.57 21.33 30.12 21.74 28.97 21.29 28.01 21.11 27.61 20.64 26.32 21.68 25.28 22.96 26.42 24.75 27.73 26.77 28.37 30.58 29.58 33.41 28.92 33.72 28.84 34.37 28.68 34.89 28.19 35.09 27.55 35.29 26.91 35.15 26.21 34.7 25.71 33.01 23.76 32.1 22.28 31.64 21.3 38.92 22.5 40.35 28.36 40.42 28.65 40.61 29.56 41.41 30.17 42.3 30.17 42.43 30.17 42.56 30.17 42.69 30.13 43.73 29.91 44.39 28.89 44.18 27.85 43.98 26.88 43.51 25.62 42.71 24.31 46.03 26.74 48.13 30.25 48.13 34.16 48.13 41.45 40.88 47.38 31.96 47.38L31.96 47.38Z" fill="#0D9DDA"/><path d="M43.88 33.93C43.6 33.76 43.31 33.58 43.01 33.46 40.56 32.46 38.05 32.49 35.55 33.16 34.36 33.48 33.17 33.72 31.98 33.73 30.79 33.73 29.6 33.48 28.41 33.16 25.91 32.49 23.39 32.46 20.95 33.46 20.64 33.59 20.35 33.75 20.08 33.93 19.55 34.27 19.31 34.71 19.43 35.38 19.66 36.63 19.81 37.91 20.04 39.16 20.27 40.4 21.1 41.25 22.35 41.37 24.06 41.53 25.78 41.62 27.5 41.65 28.88 41.68 29.86 41.05 30.25 39.65 30.62 38.36 30.99 37.07 31.42 35.79 31.51 35.52 31.8 35.32 32 35.09 32.19 35.32 32.49 35.52 32.58 35.79 33 37.07 33.38 38.36 33.75 39.65 34.14 41.06 35.13 41.68 36.5 41.65 38.21 41.62 39.94 41.53 41.65 41.37 42.9 41.25 43.74 40.4 43.96 39.16 44.19 37.9 44.34 36.63 44.57 35.38 44.7 34.72 44.44 34.26 43.92 33.93L43.88 33.93Z" fill="#032D60"/></svg>