<svg viewBox="0 0 64 64" xmlns="http://www.w3.org/2000/svg" xmlns:xlink="http://www.w3.org/1999/xlink" id="a" overflow="hidden"><path d="M35.6 41.49C35.23 42.01 34.64 42.32 34 42.33L33.72 42.33C32.98 42.22 32.36 41.71 32.12 41L28.58 31.1 26.74 34.32C26.38 34.94 25.72 35.32 25 35.32L16.48 35.32 32 50.84 47.51 35.33 40 35.33 35.6 41.49Z" fill="#8C5EC6"/><path d="M38.49 15.34 33.41 20.42C32.62 21.17 31.37 21.17 30.58 20.42L25.5 15.34C23.58 13.42 20.98 12.34 18.26 12.34 12.6 12.34 8 16.91 8 22.58 8 25.3 9.08 27.92 11 29.84L12.48 31.32 23.84 31.32 27.26 25.32C27.81 24.36 29.03 24.03 29.99 24.58 30.4 24.82 30.72 25.19 30.88 25.64L34.59 36.04 37.37 32.15C37.75 31.63 38.36 31.33 39 31.33L51.51 31.33 53 29.84C56.9 25.73 56.73 19.24 52.62 15.34 48.66 11.58 42.45 11.58 38.49 15.34Z" fill="#8C5EC6"/><path d="M55.82 12.51C50.25 6.95 41.23 6.95 35.66 12.51L32 16.17 28.34 12.51C22.84 7.28 14.2 7.28 8.7 12.51 2.99 17.93 2.76 26.96 8.18 32.67L30.59 55.08C30.96 55.46 31.47 55.67 32 55.67 32.53 55.67 33.04 55.46 33.41 55.08L55.82 32.67C61.38 27.1 61.38 18.08 55.82 12.51Z" fill="#481A54"/><path d="M53 29.84 51.51 31.33 47.51 35.33 32 50.84 16.48 35.32 12.48 31.32 11 29.84C9.07 27.91 7.99 25.3 8 22.58 8 16.92 12.6 12.34 18.26 12.34 20.98 12.34 23.58 13.42 25.5 15.34L30.58 20.42C31.37 21.17 32.62 21.17 33.41 20.42L38.49 15.34C42.45 11.58 48.66 11.58 52.62 15.34 56.73 19.24 56.9 25.73 53 29.84Z" fill="#8C5EC6"/><path d="M37.37 32.15 34.59 36.04 30.88 25.64C30.72 25.19 30.4 24.81 29.99 24.58 29.03 24.03 27.81 24.37 27.26 25.32L23.84 31.32 12.48 31.32 16.48 35.32 25 35.32C25.72 35.32 26.38 34.94 26.74 34.32L28.58 31.1 32.12 41C32.36 41.71 32.98 42.22 33.72 42.33L34 42.33C34.64 42.33 35.23 42.01 35.6 41.49L40 35.33 47.51 35.33 51.51 31.33 39 31.33C38.36 31.33 37.75 31.63 37.37 32.15Z" fill="#FFFFFF"/></svg>