<svg viewBox="0 0 71.83 74.01" xmlns="http://www.w3.org/2000/svg" xmlns:xlink="http://www.w3.org/1999/xlink" id="Layer_2" overflow="hidden"><defs/><g id="Layer_1-2"><g><path d="M30.13 28.07C29.76 29.68 29.34 31.24 28.85 32.55 28.35 33.9 27.54 35.66 26.49 37.54 26.8 38.1 27.1 38.65 27.35 39.17 27.85 40.21 28.39 41.59 28.91 43.16 30.57 43.52 32.22 44.14 34.42 45.02 35 45.25 35.57 45.53 36.14 45.83 37.28 45.19 38.57 44.6 40.17 43.88 41.45 43.31 42.88 42.88 44.34 42.56 44.5 41.95 44.67 41.33 44.89 40.66L44.89 40.66C45.28 39.47 45.87 38.21 46.58 36.95 45.82 35.91 45.09 34.75 44.35 33.34 43.61 31.94 43.03 30.24 42.57 28.41 41.87 28.15 41.24 27.89 40.7 27.66 38.8 26.84 37.27 26.12 35.96 25.43 34.52 26.22 33.17 26.85 32.12 27.28 31.42 27.57 30.77 27.83 30.15 28.07Z" fill="none"/><path d="M41.35 21.62C40.72 22.2 40.06 22.73 39.38 23.23 40.09 23.56 40.87 23.92 41.72 24.29 41.58 23.39 41.45 22.5 41.34 21.62Z" fill="none"/><path d="M26.19 25.77C24.49 26.25 22.88 26.59 21.67 26.82 23.08 26.64 24.48 26.32 26.19 25.77Z" fill="none"/><path d="M48.16 41.94C49.1 41.84 50.03 41.76 50.9 41.72 50.23 41.07 49.61 40.46 49.02 39.84 48.69 40.5 48.41 41.15 48.21 41.75 48.19 41.82 48.17 41.88 48.15 41.94Z" fill="none"/><path d="M43.64 46.4C43.64 46.4 43.64 46.37 43.64 46.36 43.27 46.47 42.92 46.58 42.57 46.71 42.9 46.6 43.25 46.5 43.63 46.4Z" fill="none"/><path d="M26.66 48.22C26.94 49.95 27.14 51.34 27.27 52.33 27.17 50.97 26.95 49.58 26.66 48.22Z" fill="none"/><path d="M32.46 23.29C32 22.96 31.56 22.62 31.13 22.26 31.07 22.82 30.98 23.4 30.9 23.98 30.9 23.98 30.92 23.98 30.93 23.98 31.35 23.8 31.88 23.57 32.46 23.29Z" fill="none"/><path d="M26.18 29.44C24.5 29.93 23.06 30.21 21.57 30.37 22.49 31.5 23.45 32.79 24.35 34.11 24.87 33.06 25.29 32.11 25.57 31.33 25.79 30.74 25.99 30.1 26.18 29.44Z" fill="none"/><path d="M50.17 45.27C49.23 45.34 48.25 45.45 47.27 45.59 47.27 45.61 47.27 45.64 47.26 45.66 48.18 45.51 49.16 45.38 50.17 45.27Z" fill="none"/><path d="M30.63 50.76C31.44 49.72 32.18 48.9 32.91 48.19 31.79 47.74 30.85 47.37 29.98 47.08 30.25 48.28 30.48 49.52 30.63 50.76Z" fill="none"/><path d="M22.84 42.99C23.66 42.9 24.4 42.86 25.09 42.84 24.83 42.14 24.57 41.52 24.33 40.98 23.85 41.66 23.36 42.34 22.84 42.99Z" fill="none"/><path d="M21.33 39.17C20.7 39.98 20.15 40.7 19.67 41.31 20.25 40.63 20.8 39.91 21.33 39.17Z" fill="none"/><path d="M27.35 39.17C27.1 38.65 26.81 38.1 26.49 37.54 25.86 36.42 25.13 35.26 24.35 34.11 23.45 32.79 22.49 31.5 21.57 30.37 23.06 30.22 24.5 29.94 26.18 29.44 26.53 28.2 26.84 26.85 27.09 25.51 26.79 25.6 26.49 25.69 26.19 25.77 24.48 26.33 23.08 26.65 21.67 26.82 20.41 27.06 19.59 27.17 19.59 27.17 19.59 27.17 16.27 27.56 10.87 27.14 8.4 27.08 5.98 26.8 5.31 25.86 5.01 25.44 5.21 24.68 5.43 24.11 6.1 22.38 6.53 22.2 6.54 22.2 6.57 22.2 6.6 22.19 6.63 22.19 7.31 22.19 8.32 22.78 12.26 26 13.84 26.27 15.4 26.28 17.86 26.38 17.22 25.83 15.89 24.83 15.33 24.33 10.62 20.23 8.25 18.17 5.7 18.8 3.77 19.28 2.8 21.22 2.17 22.85 1.22 25.33 1.8 26.96 2.47 27.89 4.64 30.93 10.26 30.75 15.23 30.58 15.88 30.56 16.5 30.54 17.07 30.53 18.51 32.02 20.67 34.76 22.4 37.49 22.41 37.5 22.42 37.51 22.43 37.53 22.47 37.57 22.49 37.61 22.49 37.64 23.14 38.68 23.73 39.72 24.19 40.67 24.24 40.76 24.28 40.87 24.33 40.97 24.57 41.5 24.83 42.13 25.09 42.83 25.26 42.83 25.44 42.81 25.6 42.81 26.8 42.81 27.86 42.93 28.91 43.15 28.4 41.58 27.85 40.2 27.35 39.16Z" fill="#FB4100"/><path d="M70.41 44.23C68.19 41.15 62.66 41.53 59.01 41.79 58.32 41.84 57.46 41.89 57.25 41.87 56.97 41.82 56.52 41.77 55.96 41.73 55.35 41.13 54.78 40.59 54.25 40.08 52.91 38.79 51.83 37.74 50.87 36.68 50.06 35.77 49.33 34.84 48.62 33.74 48.23 33.13 47.84 32.47 47.44 31.71 47.12 31.11 46.83 30.41 46.57 29.64 45.09 29.29 43.73 28.85 42.56 28.41 43.03 30.24 43.61 31.94 44.34 33.34 45.08 34.75 45.81 35.91 46.57 36.95 47.34 38 48.14 38.92 49.01 39.84 49.6 40.45 50.22 41.07 50.89 41.72 50.01 41.76 49.09 41.84 48.15 41.94 47.72 43.29 47.44 44.46 47.26 45.59 48.24 45.45 49.21 45.34 50.16 45.27 54.84 44.74 60.19 44.61 63.93 45.17 65.56 45.26 67.04 45.55 67.57 46.28 68.01 46.89 67.61 48.09 67.34 48.75 66.8 50.04 66.24 50.11 66.05 50.13 64.81 50.27 61.39 47.78 59.45 45.99 58.01 45.88 56.95 45.99 54.78 45.82 57.29 48.77 62.54 54.08 66.48 53.6 67.75 53.44 69.48 52.7 70.57 50.08 71.55 47.71 71.5 45.74 70.41 44.23Z" fill="#FB4100"/><path d="M34.41 45.02C32.21 44.14 30.56 43.51 28.9 43.16 27.85 42.94 26.8 42.82 25.59 42.82 25.43 42.82 25.25 42.83 25.08 42.84 24.38 42.86 23.65 42.9 22.83 42.99 23.35 42.34 23.85 41.67 24.32 40.98 24.27 40.88 24.23 40.77 24.18 40.68 23.72 39.72 23.13 38.69 22.48 37.65 22.48 37.65 22.48 37.67 22.48 37.67 22.07 38.21 21.68 38.7 21.32 39.18 20.8 39.92 20.24 40.64 19.66 41.32 18.53 42.77 17.86 43.62 17.86 43.62 17.86 43.62 15.03 46.4 9.86 49.85 7.75 51.47 5.74 52.74 4.67 52.5 4.57 52.48 4.25 52.41 3.91 51.67 3.51 50.81 3.38 50.11 3.55 49.81 4.08 48.9 7.09 48.52 9.93 48.25 11.55 47.36 13.7 46.02 16.11 44.07 14.37 44.33 12.6 44.5 10.88 44.65 5.94 45.09 2.04 45.43 0.53 48.06-0.26 49.43-0.19 51.14 0.75 53.15 1.64 55.06 2.97 55.71 3.93 55.92 7.38 56.68 11.6 53.08 16.06 49.28 16.88 48.58 17.7 47.88 18.51 47.22 22.1 46.54 24.34 46.26 26.19 46.34 27.54 46.4 28.68 46.66 29.97 47.09 30.84 47.38 31.78 47.75 32.9 48.2 33.92 47.23 34.93 46.51 36.12 45.84 35.55 45.54 34.97 45.26 34.4 45.03Z" fill="#07253D"/><path d="M30.92 23.98C30.92 23.98 30.9 23.98 30.89 23.98 30.89 23.98 30.89 23.98 30.89 23.98 30.89 23.98 30.91 23.98 30.92 23.97Z" fill="#FFFFFF"/><path d="M45.36 16.6C46.26 15.34 47.16 14.18 47.99 13.12 50.79 9.51 52.81 6.9 52.17 4.25 51.82 2.82 50.76 1.7 48.92 0.84 46.63-0.23 44.73-0.28 43.27 0.68 40.45 2.54 40.59 7.2 40.73 11.71 40.74 12.17 40.76 12.62 40.77 13.06 40.79 14.04 40.84 15.35 40.93 16.86 39.63 18.68 37.75 20.19 35.91 21.38 34.69 22.17 33.48 22.8 32.47 23.29 31.88 23.57 31.36 23.8 30.94 23.98 30.94 23.98 30.92 23.98 30.91 23.99 30.91 24.03 30.9 24.07 30.89 24.1 30.69 25.4 30.44 26.75 30.14 28.06 30.76 27.82 31.41 27.56 32.11 27.27 33.16 26.84 34.51 26.21 35.95 25.42 37.07 24.8 38.24 24.07 39.38 23.22 40.05 22.72 40.72 22.19 41.35 21.61 41.45 22.49 41.58 23.39 41.73 24.28 41.85 24.33 41.96 24.38 42.09 24.44 42.85 24.77 44.01 25.23 45.39 25.66 44.55 22.36 44.39 19.99 44.39 19.99 44.39 19.99 43.85 16.35 44.2 10.48 44.14 7.8 44.17 4.28 45.2 3.6 45.31 3.53 45.47 3.49 45.66 3.49 46.1 3.49 46.72 3.67 47.45 4.01 48.22 4.37 48.7 4.75 48.78 5.07 49 5.98 47.39 8.17 45.76 10.28 45.57 11.8 45.39 13.91 45.36 16.6Z" fill="#FB4100"/><path d="M32.24 18.56C30.94 17.54 30.21 16.92 30.21 16.92 30.21 16.92 29.19 15.92 27.61 14.03L27.61 14.03C25.42 11.87 22.74 8.97 23.01 7.48 23.1 6.97 23.79 6.58 24.35 6.35 25.47 5.87 26.04 5.79 26.3 5.79 26.44 5.79 26.49 5.81 26.49 5.81 27.09 6.18 27.34 9.28 27.52 12.42 28.51 13.82 29.75 15.38 31.29 17.03 31.21 15.8 31.15 14.65 31.09 13.6 30.75 7.36 30.57 4.23 28.34 2.84 26.65 1.79 24.59 2.45 22.98 3.13 20.54 4.17 19.78 5.73 19.58 6.85 18.91 10.53 22.97 14.43 26.55 17.87 27.02 18.32 27.47 18.75 27.87 19.15 27.83 20.62 27.58 22.78 27.18 25.03 27.16 25.17 27.13 25.31 27.1 25.45 27.1 25.47 27.1 25.48 27.1 25.5 26.85 26.84 26.54 28.19 26.19 29.43 26 30.1 25.8 30.74 25.58 31.32 25.3 32.09 24.88 33.05 24.36 34.1 25.14 35.25 25.87 36.41 26.5 37.53 27.55 35.65 28.37 33.88 28.86 32.54 29.34 31.23 29.77 29.68 30.14 28.06 30.44 26.75 30.69 25.4 30.89 24.1 30.89 24.06 30.9 24.02 30.91 23.99 30.91 23.99 30.91 23.99 30.91 23.99 31 23.4 31.08 22.82 31.14 22.27 31.57 22.63 32.01 22.96 32.47 23.3 33.49 22.81 34.69 22.18 35.91 21.39 34.51 20.53 33.4 19.65 32.25 18.57Z" fill="#07253D"/><path d="M71.37 21.28C70.54 18.9 69.25 17.49 67.54 17.12 64.24 16.39 61 19.75 57.86 22.99 57.54 23.32 57.22 23.65 56.92 23.96 56.23 24.66 55.32 25.61 54.31 26.73 51.54 27.15 48.5 26.6 46.04 25.88 45.87 25.83 45.71 25.78 45.55 25.74 45.49 25.72 45.44 25.71 45.39 25.69 44.01 25.26 42.84 24.79 42.09 24.47 41.97 24.42 41.85 24.37 41.73 24.31 40.87 23.94 40.09 23.58 39.39 23.25 38.25 24.1 37.08 24.83 35.96 25.45 37.27 26.14 38.81 26.86 40.7 27.68 41.24 27.91 41.88 28.17 42.57 28.43 43.74 28.86 45.1 29.3 46.58 29.66 46.6 29.66 46.61 29.66 46.63 29.67 46.71 29.69 46.78 29.7 46.86 29.72 48.24 30.04 49.71 30.28 51.2 30.35 50.32 31.43 49.45 32.58 48.63 33.75 49.34 34.85 50.06 35.79 50.88 36.69 51.85 35.23 52.98 33.73 54.19 32.24 54.95 31.08 55.4 30.44 55.4 30.44 55.4 30.44 57.23 28.19 60.75 25.04 62.56 23.18 65.22 20.52 66.59 20.52 66.66 20.52 66.72 20.52 66.79 20.54 67.21 20.63 67.69 21.34 68.07 22.44 68.35 23.24 68.41 23.86 68.24 24.13 67.71 24.98 64.63 25.35 61.81 25.67 60.46 26.68 58.83 28.05 57.09 29.81 58.8 29.54 60.44 29.35 61.93 29.18 66.47 28.67 69.76 28.3 71.2 26 71.99 24.75 72.04 23.21 71.37 21.29Z" fill="#07253D"/><path d="M49.06 57.06C48.55 56.6 47.91 56.03 47.77 55.86 47.61 55.62 47.33 55.27 46.96 54.84 46.96 53.99 46.96 53.2 46.96 52.46 46.95 49.98 46.94 48.13 47.18 46.26 47.2 46.06 47.23 45.86 47.26 45.67 47.26 45.65 47.26 45.62 47.27 45.6 47.45 44.47 47.73 43.3 48.16 41.95 48.18 41.88 48.2 41.82 48.22 41.76 48.41 41.16 48.7 40.52 49.03 39.85 48.15 38.93 47.35 38.01 46.59 36.96 45.87 38.23 45.28 39.48 44.9 40.67L44.9 40.67C44.68 41.34 44.51 41.96 44.35 42.57 44 43.92 43.78 45.16 43.66 46.37 43.66 46.38 43.66 46.4 43.66 46.41 43.65 46.53 43.64 46.66 43.63 46.78 43.5 48.2 43.47 49.62 43.48 51.21 42.33 50.14 41.01 49.03 39.6 48 38.31 48.6 37.29 49.16 36.34 49.89 36.35 49.89 36.37 49.87 36.38 49.88 40.14 52.49 42.31 54.21 42.31 54.21 42.31 54.21 44.91 56.62 48.31 61.1 50.04 62.75 52.09 64.97 51.85 66.33 51.72 67.06 50.58 67.62 49.92 67.88 48.62 68.39 48.17 68.04 48.03 67.92 46.87 66.99 46.5 63.89 46.56 60.7 45.74 59.47 44.68 58.04 43.34 56.48 42.91 59.98 42.39 67.88 45.85 70.65 46.49 71.16 47.44 71.65 48.74 71.65 49.46 71.65 50.28 71.5 51.22 71.13 53.6 70.18 54.98 68.77 55.3 66.93 55.96 63.19 51.83 59.5 49.1 57.05Z" fill="#07253D"/><path d="M41.59 47.09C41.9 46.95 42.25 46.83 42.58 46.71 42.02 46.89 41.53 47.08 41.15 47.28 41.3 47.22 41.43 47.15 41.59 47.09Z" fill="#FFFFFF"/><path d="M21.33 39.17C21.7 38.69 22.08 38.2 22.49 37.66 22.49 37.66 22.49 37.64 22.49 37.64 22.47 37.61 22.45 37.57 22.42 37.54 22.08 38.09 21.71 38.64 21.33 39.18Z" fill="#07253D"/><path d="M22.42 37.53C22.42 37.53 22.4 37.51 22.39 37.49 22.39 37.5 22.41 37.52 22.42 37.53 22.42 37.53 22.42 37.53 22.42 37.53Z" fill="#FFFFFF"/><path d="M22.42 37.54C22.42 37.54 22.46 37.61 22.49 37.64 22.49 37.61 22.46 37.58 22.43 37.53 22.43 37.53 22.43 37.53 22.43 37.53Z" fill="#FFFFFF"/><path d="M40.17 43.89C38.57 44.6 37.28 45.19 36.14 45.84 34.96 46.51 33.94 47.23 32.92 48.2 32.18 48.9 31.44 49.73 30.64 50.77 30.49 49.53 30.26 48.29 29.99 47.09 28.7 46.66 27.56 46.4 26.21 46.34 26.24 46.44 26.26 46.54 26.29 46.64 26.43 47.16 26.55 47.69 26.67 48.23 26.96 49.58 27.18 50.98 27.28 52.34 27.42 53.41 27.48 54 27.48 54 27.48 54 27.63 58.43 26.48 65.19L26.48 65.19C26.17 67.68 25.68 69.83 24.8 70.4 24.71 70.46 24.44 70.63 23.68 70.37 22.78 70.06 22.19 69.67 22.09 69.33 21.81 68.34 23.56 65.99 25.31 63.82 25.77 62.17 26.29 59.72 26.56 56.59 25.58 57.93 24.53 59.23 23.5 60.49 20.37 64.33 17.9 67.37 18.72 70.28 19.15 71.8 20.43 72.94 22.52 73.67 23.21 73.91 23.84 74.01 24.39 74.01 25.42 74.01 26.19 73.67 26.73 73.32 29.68 71.37 30.05 65.85 30.44 59.99 30.51 58.93 30.58 57.84 30.67 56.79 33.07 53.15 34.56 51.29 36.19 50 36.21 49.98 36.23 49.96 36.25 49.94 36.28 49.91 36.31 49.9 36.33 49.89 37.29 49.16 38.31 48.6 39.59 48 40.07 47.77 40.59 47.54 41.16 47.29 41.54 47.09 42.02 46.9 42.59 46.72 42.94 46.6 43.29 46.48 43.66 46.37 43.79 45.16 44 43.92 44.35 42.57 42.89 42.9 41.46 43.32 40.18 43.89Z" fill="#FB4100"/><path d="M36.23 49.95C36.23 49.95 36.19 49.99 36.17 50.01 36.19 49.99 36.21 49.98 36.24 49.96 36.24 49.96 36.24 49.96 36.24 49.96Z" fill="#FFFFFF"/><path d="M36.24 49.95C36.24 49.95 36.29 49.91 36.31 49.89 36.29 49.9 36.26 49.92 36.23 49.94 36.23 49.94 36.23 49.94 36.23 49.94Z" fill="#FFFFFF"/></g></g></svg>