<svg viewBox="0 0 35.75 35.75" xmlns="http://www.w3.org/2000/svg" xmlns:xlink="http://www.w3.org/1999/xlink" id="Layer_2" overflow="hidden"><defs></defs><g id="Layer_1-2"><circle cx="17.88" cy="17.88" r="16.38" stroke="#01A9DB" stroke-width="3" stroke-miterlimit="10" fill="#01A9DB"/><path d="M17.88 0.95C8.53 0.95 0.95 8.53 0.95 17.88 0.95 27.23 8.53 34.81 17.88 34.81 27.23 34.81 34.81 27.23 34.81 17.88 34.81 8.53 27.22 0.95 17.88 0.95Z" fill="#172A44"/><path d="M16.79 10.5 19.47 15.07 25.69 11.29 23.86 8.23 31.69 9.34 28.93 17.24 27.25 14.14 18.14 20.07 15.34 15.4 2.96 22.77C2.96 22.77 2.74 22.2 2.39 20.85 2.07 19.63 2.11 18.69 2.11 18.69L16.8 10.5Z" fill="#01A9DB"/><path d="M4.68 26.24 4.68 24.46 10.3 21.19 10.3 31.38C10.3 31.38 6.64 29.41 4.68 26.24Z" fill="#01A9DB"/><path d="M11.73 20.35 11.73 31.76C11.73 31.76 14.04 33.22 17.52 33.09L17.44 22.87 14.92 18.67 11.73 20.35Z" fill="#01A9DB"/><path d="M19.03 33.06 18.86 22.28 24.73 18.59 24.98 31.3C24.98 31.3 22.38 33.06 19.02 33.06Z" fill="#01A9DB"/><path d="M26.33 30.54 26.16 18.08 27.42 17.32 29.35 20.51 32.04 12.71 32.12 24.83C32.19 24.58 29.36 29.4 26.33 30.54Z" fill="#01A9DB"/></g></svg>