<svg viewBox="0 0 96 96" xmlns="http://www.w3.org/2000/svg" xmlns:xlink="http://www.w3.org/1999/xlink" id="Icons_MaleProfile_M" overflow="hidden"><style>
.MsftOfcResponsive_Fill_01a9db {
 fill:#01A9DB; 
}
.MsftOfcThm_Accent1_Stroke_v2 {
 stroke:#01A9DB; 
}
</style>
<g id="Icons"><path d="M28.882 30.3C29.516 30.308 30.24 30.307 31.015 30.3 31.1834 39.1294 38.4776 46.1506 47.307 45.9822 55.945 45.8174 62.89 38.821 62.991 30.182 63.282 29.196 65.134 22.461 62.909 18.202 61.4765 15.1978 58.3916 13.3361 55.066 13.469 53.431 12.175 46.576 7.553 36.937 12.104 29.037 15.831 28.808 24.004 28.818 25.231L27.918 29.076C27.792 29.6137 28.1258 30.1518 28.6636 30.2777 28.7345 30.2943 28.8071 30.3032 28.88 30.304ZM47 44C39.3669 43.9892 33.1471 37.8699 33.012 30.238 36.751 30.083 41.162 29.598 43.937 28.287 47.568 26.573 52.157 22.712 53.601 21.458 54.9872 22.097 56.2143 23.0355 57.194 24.206 58.0128 25.2068 58.7215 26.2927 59.308 27.445 59.776 28.28 60.308 29.224 60.986 30.271 60.8337 37.8895 54.62 43.989 47 44ZM30.794 25.558C30.8141 25.4718 30.8228 25.3834 30.82 25.295 30.81 24.969 30.638 17.283 37.791 13.906 40.1161 12.7569 42.6687 12.1419 45.262 12.106 48.4733 12.0637 51.5941 13.1698 54.062 15.225 54.2895 15.44 54.604 15.5368 54.913 15.487 57.5477 15.2505 60.0435 16.7075 61.133 19.118 62.381 21.507 62.021 25.085 61.583 27.407 61.395 27.079 61.219 26.765 61.05 26.464 60.3985 25.1898 59.6105 23.9901 58.7 22.886 57.382 21.2426 55.6183 20.0139 53.62 19.347 53.3009 19.2704 52.9646 19.3553 52.72 19.574 52.664 19.624 47.101 24.584 43.088 26.474 39.831 28.011 33.652 28.274 30.157 28.296Z" class="MsftOfcThm_Accent1_Stroke_v2 MsftOfcResponsive_Fill_01a9db" stroke="#01A9DB" stroke-width="0.999986" stroke-linecap="butt" stroke-linejoin="miter" stroke-miterlimit="4" stroke-opacity="1" fill="#01A9DB" fill-opacity="1"/><path d="M76.533 59.525C71.9429 55.9913 66.6845 53.4244 61.075 51.979 59.783 51.592 58.482 51.258 57.209 50.986L56.702 50.877 56.321 51.23C52.246 55 49.484 55 48 55 46.516 55 43.731 55 39.676 51.28L39.297 50.932 38.797 51.038C37.572 51.296 36.278 51.611 34.94 51.976 29.3979 53.6002 24.1705 56.1502 19.479 59.518 17.3279 61.2033 16.0501 63.7678 16 66.5L16 82 18 82 18 66.5C18.0441 64.391 19.0303 62.4126 20.688 61.108 25.1778 57.8941 30.1771 55.46 35.476 53.908 36.586 53.608 37.676 53.336 38.711 53.108 42.6 56.527 45.584 57 48 57 50.416 57 53.384 56.521 57.29 53.051 58.351 53.291 59.43 53.574 60.513 53.899 65.8678 55.2721 70.8893 57.7148 75.275 61.08 76.952 62.3851 77.9527 64.3755 78 66.5L78 82 80 82 80 66.5C79.9516 63.772 78.6784 61.2106 76.533 59.525Z" class="MsftOfcThm_Accent1_Stroke_v2 MsftOfcResponsive_Fill_01a9db" stroke="#01A9DB" stroke-width="0.999986" stroke-linecap="butt" stroke-linejoin="miter" stroke-miterlimit="4" stroke-opacity="1" fill="#01A9DB" fill-opacity="1"/></g></svg>