<svg viewBox="0 0 59.9 415.8" xmlns="http://www.w3.org/2000/svg" xmlns:xlink="http://www.w3.org/1999/xlink" id="Layer_1" overflow="hidden"><defs/><path d="M30.5 211.5C16.1 211.5 4.4 223.2 4.4 237.6 4.4 252 16.1 263.7 30.5 263.7 44.9 263.7 56.6 252 56.6 237.6 56.6 223.2 44.9 211.5 30.5 211.5ZM8.7 231.8C9.1 228 11.4 224.9 15.4 222.6 20.2 219.9 24.6 221.1 27.7 222.7 29.6 223.7 31.8 223.7 33.7 222.7 36.7 221.1 41.2 219.9 46 222.6 50 224.9 52.2 228 52.7 231.8 53.1 235.4 51.7 239.3 49.7 242.6 46.6 242.3 43.3 242.1 40.3 241.9 37.3 241.9 34.4 246.3 32.5 249.5 31.9 245.1 30.3 233.2 30.3 233.2 30.3 232.4 28.4 232.3 28.2 233.1 27.1 236 26.1 239.2 24 241.9 23.9 242 23.7 242.1 23.6 242.2 23.6 242.2 23.6 242.2 23.6 242.2 20 242.2 15.8 242.6 12.1 242.9 9.9 239.5 8.4 235.5 8.9 231.8L8.9 231.8ZM45.4 247.7C41.2 251.5 32.5 258.2 31.1 259.2L30.6 259.5 30.1 259.2C28.7 258.2 20 251.5 15.8 247.7 14.5 246.5 13.1 244.9 12 243.1 15.7 243.4 19.9 243.8 23.5 243.8 24.4 243.8 25.1 243.3 25.5 242.9 26.9 241.4 27.5 239.9 28.3 238.3 28.3 238.1 28.4 237.9 28.5 237.7L30.5 252.9C30.5 253.2 30.8 253.4 31.2 253.5 31.8 253.7 32.4 253.5 32.6 253 33.4 251.5 34.2 250.1 35.2 248.6 36.1 247.4 36.9 245.9 38.1 244.7 39.1 243.8 40.4 243.3 41.7 243.2 44.2 243 46.9 242.8 49.4 242.6 48.2 244.5 46.8 246.2 45.4 247.5L45.4 247.5Z" stroke="none" stroke-width="1" stroke-linecap="butt" stroke-linejoin="miter" stroke-miterlimit="4" fill="#FFFFFF" fill-opacity="0.76"/><g><path d="M29.8 80.5C30.9 80.5 31.8 79.6 31.8 78.5 31.8 77.4 30.9 76.5 29.8 76.5 28.7 76.5 27.8 77.4 27.8 78.5 27.8 79.6 28.7 80.5 29.8 80.5Z" stroke="none" stroke-width="1" stroke-linecap="butt" stroke-linejoin="miter" stroke-miterlimit="4" fill="#FFFFFF" fill-opacity="0.76"/><circle cx="46.6" cy="85.6" r="2" stroke="none" stroke-width="1" stroke-linecap="butt" stroke-linejoin="miter" stroke-miterlimit="4" fill="#FFFFFF" fill-opacity="0.76"/><path d="M53.4 100.5C52.3 100.5 51.4 101.4 51.4 102.5 51.4 103.6 52.3 104.5 53.4 104.5 54.5 104.5 55.4 103.6 55.4 102.5 55.4 101.4 54.5 100.5 53.4 100.5Z" stroke="none" stroke-width="1" stroke-linecap="butt" stroke-linejoin="miter" stroke-miterlimit="4" fill="#FFFFFF" fill-opacity="0.76"/><path d="M50.4 100.1 45.7 95.7 45.9 89.4 46.2 89.1 42.9 85.8 42.7 86 42.7 86C42.7 86 36.3 86.2 36.3 86.2L32 81.6 32 81.2 27.3 81.2 27.3 81.5 27.3 81.5C27.3 81.5 22.9 86.2 22.9 86.2L16.6 86 16.3 85.7 13 89 13.2 89.2 13.2 89.2 13.4 95.6 8.8 99.9 8.4 99.9 8.4 104.6 8.7 104.6 8.7 104.6C8.7 104.6 13.4 109 13.4 109L13.2 115.3 12.9 115.6 16.2 118.9 16.4 118.7 16.4 118.7C16.4 118.7 22.8 118.5 22.8 118.5L27.1 123.1 27.1 123.5 31.8 123.5 31.8 123.2 31.8 123.2C31.8 123.2 36.2 118.5 36.2 118.5L42.5 118.7 42.8 119 46.1 115.7 45.9 115.5 45.9 115.5 45.7 109.1 50.3 104.8 50.7 104.8 50.7 100.1 50.4 100.1 50.4 100.1C50.4 100.1 50.4 100.1 50.4 100.1ZM44.1 91.2 44.5 95.9 44.8 95.9C44.8 95.9 44.6 96.3 44.6 96.3L47.8 100.1 41.9 100.1 37.4 99.2 40 95.3 44.1 91.2 44.1 91.2ZM35.6 104.2 35.6 104.8 35 105.4 37.9 110.8 32.5 107.9 32.1 108.3 31.3 108.3 29.5 114.2 27.7 108.3 27.1 108.3 26.5 107.7 21.1 110.6 24 105.2 23.6 104.8 23.6 104 17.7 102.2 23.6 100.4 23.6 99.8 24.2 99.2 21.3 93.8 26.7 96.7 27.1 96.3 27.9 96.3 29.7 90.4 31.5 96.3 32.1 96.3 32.7 96.9 38.1 94 35.2 99.4 35.6 99.8 35.6 100.6 41.5 102.4 35.6 104.2ZM35.6 87.3 35.9 87.3C35.9 87.2 35.9 87.5 35.9 87.5L40.8 87.9 36.6 92.1 32.8 94.7 31.9 90.1 31.9 84.3 35.5 87.4 35.5 87.4ZM23.2 87.4 23.2 87.1C23.2 87.1 23.6 87.2 23.6 87.2L27.4 84 27.4 89.9 26.5 94.4 22.6 91.8 18.5 87.7 23.2 87.3 23.2 87.3ZM14.5 96.3 14.5 96C14.4 96 14.7 96 14.7 96L15.1 91.1 19.3 95.3 21.9 99.1 17.3 100 11.5 100C11.5 100 14.6 96.4 14.6 96.4ZM15 113.4 14.6 108.7 14.3 108.7C14.3 108.7 14.5 108.3 14.5 108.3L11.3 104.5 17.2 104.5 21.7 105.4 19.1 109.3C19.1 109.3 15 113.4 15 113.4ZM23.5 117.4 23.2 117.4C23.2 117.5 23.2 117.2 23.2 117.2L18.3 116.8 22.5 112.6 26.3 110 27.2 114.6 27.2 120.4 23.6 117.3 23.6 117.3ZM35.9 117.2 35.9 117.5C35.9 117.5 35.5 117.3 35.5 117.3L31.7 120.5 31.7 114.6 32.6 110.1 36.5 112.7 40.6 116.8C40.6 116.8 35.9 117.2 35.9 117.2ZM44.6 108.4 44.6 108.7C44.7 108.7 44.4 108.7 44.4 108.7L44 113.7 39.8 109.5 37.2 105.7 41.8 104.8 47.6 104.8C47.6 104.8 44.5 108.4 44.5 108.4Z" stroke="none" stroke-width="1" stroke-linecap="butt" stroke-linejoin="miter" stroke-miterlimit="4" fill="#FFFFFF" fill-opacity="0.76"/><path d="M44.8 117.9C44 118.7 44 120 44.8 120.7 45.6 121.5 46.9 121.5 47.6 120.7 48.3 119.9 48.4 118.6 47.6 117.9 46.8 117.1 45.5 117.1 44.8 117.9Z" stroke="none" stroke-width="1" stroke-linecap="butt" stroke-linejoin="miter" stroke-miterlimit="4" fill="#FFFFFF" fill-opacity="0.76"/><path d="M29.4 124.2C28.3 124.2 27.4 125.1 27.4 126.2 27.4 127.3 28.3 128.2 29.4 128.2 30.5 128.2 31.4 127.3 31.4 126.2 31.4 125.1 30.5 124.2 29.4 124.2Z" stroke="none" stroke-width="1" stroke-linecap="butt" stroke-linejoin="miter" stroke-miterlimit="4" fill="#FFFFFF" fill-opacity="0.76"/><path d="M11.1 117.6C10.3 118.4 10.3 119.7 11.1 120.4 11.9 121.2 13.2 121.2 13.9 120.4 14.6 119.6 14.7 118.3 13.9 117.6 13.1 116.9 11.8 116.8 11.1 117.6Z" stroke="none" stroke-width="1" stroke-linecap="butt" stroke-linejoin="miter" stroke-miterlimit="4" fill="#FFFFFF" fill-opacity="0.76"/><path d="M5.7 100.1C4.6 100.1 3.7 101 3.7 102.1 3.7 103.2 4.6 104.1 5.7 104.1 6.8 104.1 7.7 103.2 7.7 102.1 7.7 101 6.8 100.1 5.7 100.1Z" stroke="none" stroke-width="1" stroke-linecap="butt" stroke-linejoin="miter" stroke-miterlimit="4" fill="#FFFFFF" fill-opacity="0.76"/><path d="M14.3 86.8C15.1 86 15.1 84.7 14.3 83.9 13.5 83.1 12.2 83.1 11.5 83.9 10.8 84.7 10.7 86 11.5 86.8 12.3 87.6 13.6 87.6 14.3 86.8Z" stroke="none" stroke-width="1" stroke-linecap="butt" stroke-linejoin="miter" stroke-miterlimit="4" fill="#FFFFFF" fill-opacity="0.76"/></g><g><path d="M30.2 401.9C21.7 401.9 14.8 395 14.8 386.5 14.8 378 21.7 371.1 30.2 371.1 38.7 371.1 45.6 378 45.6 386.5 45.6 395 38.7 401.9 30.2 401.9ZM30.2 372.5C22.5 372.5 16.2 378.8 16.2 386.5 16.2 394.2 22.5 400.5 30.2 400.5 37.9 400.5 44.2 394.2 44.2 386.5 44.2 378.8 37.9 372.5 30.2 372.5Z" stroke="none" stroke-width="1" stroke-linecap="butt" stroke-linejoin="miter" stroke-miterlimit="4" fill="#FFFFFF" fill-opacity="0.76"/><path d="M31.9 384.6 31.9 379.7C33.2 380 34.2 380.6 35 381.5L35.4 382 37.5 379.5 37.2 379.2C35.8 377.8 34 376.9 31.9 376.6L31.9 374 29.2 374 29.2 376.5C25.8 376.9 23.5 379.1 23.5 382.1 23.5 385.1 26.8 386.9 29.2 387.6L29.2 393.3C27.2 392.9 25.8 391.7 25.2 391L24.8 390.5 22.8 393.1 23.1 393.4C24.6 395.1 26.8 396.2 29.3 396.4L29.3 398.9 32 398.9 32 396.4C36.3 395.9 37.8 393.1 37.8 390.6 37.8 386.6 34.4 385.5 32 384.8L32 384.8ZM34.3 390.6C34.3 391.6 33.6 392.8 31.8 393.1L31.8 388.2C33.4 388.7 34.3 389.4 34.3 390.6ZM26.8 381.8C26.8 380.6 27.7 379.8 29.1 379.5L29.1 383.8C27.4 383.3 26.8 382.7 26.8 381.8Z" stroke="none" stroke-width="1" stroke-linecap="butt" stroke-linejoin="miter" stroke-miterlimit="4" fill="#FFFFFF" fill-opacity="0.76"/><path d="M49.7 393.6 55.2 394.9C55.8 393.2 56.3 391.4 56.5 389.5L50.9 387.8C50.9 387.2 51.1 386.7 51.1 386.1 51.1 385.1 50.9 384 50.8 383L56.4 381.3C56.1 379.4 55.6 377.7 54.9 376L49.2 377.4C48.6 376 47.7 374.6 46.8 373.4L50.8 369.2C49.6 367.8 48.3 366.5 46.8 365.3L42.6 369.3C41.4 368.4 40 367.5 38.6 366.9L39.9 361.4C38.2 360.7 36.4 360.2 34.5 360L32.9 365.4C31.9 365.3 30.9 365.1 29.9 365.1 28.9 365.1 28.7 365.2 28.1 365.3L26.5 360C24.6 360.3 22.8 360.7 21.1 361.4L22.3 366.6C20.7 367.2 19.2 368 17.8 368.9L14 365.3C12.5 366.4 11.2 367.7 10 369.2L13.5 372.9C12.4 374.3 11.4 375.7 10.6 377.3L5.7 376.2C5 377.9 4.5 379.7 4.2 381.5L8.9 382.9C8.7 384 8.6 385.1 8.6 386.3 8.6 387.5 8.7 387.7 8.8 388.4L4.1 389.8C4.4 391.6 4.8 393.4 5.4 395.1L10.1 394C10.8 395.8 11.8 397.4 12.9 399L9.6 402.5C10.7 403.9 12 405.3 13.5 406.4L17.1 403C18.6 404.2 20.3 405.1 22.1 405.8L21 410.6C22.7 411.3 24.5 411.7 26.3 412L27.8 407.1C28.5 407.1 29.2 407.3 30 407.3 31.2 407.3 32.3 407.1 33.4 407L34.9 412C36.7 411.7 38.5 411.2 40.2 410.5L39 405.3C40.6 404.5 42.1 403.5 43.5 402.4L47.5 406.2C48.9 405 50.2 403.7 51.3 402.2L47.5 398.1C48.5 396.7 49.2 395.2 49.8 393.6L49.8 393.6ZM30.1 403.9C20.6 403.9 12.8 396.1 12.8 386.6 12.8 377.1 20.6 369.3 30.1 369.3 39.6 369.3 47.4 377.1 47.4 386.6 47.4 396.1 39.6 403.9 30.1 403.9Z" stroke="none" stroke-width="1" stroke-linecap="butt" stroke-linejoin="miter" stroke-miterlimit="4" fill="#FFFFFF" fill-opacity="0.76"/></g><g><path d="M22.5 319.6C22.4 319.4 22.2 319.1 22.1 318.9 22.1 319.1 22.3 319.4 22.5 319.6Z" stroke="none" stroke-width="1" stroke-linecap="butt" stroke-linejoin="miter" stroke-miterlimit="4" fill="#172A44" fill-opacity="0.76"/><path d="M50.6 318.1 60.9 317.9 51.1 314.8C47.5 313.6 46.8 308.8 49.9 306.7L58.4 300.9 48.4 303.6C44.7 304.6 41.5 300.9 43 297.4L47.1 287.9 40.2 295.5C37.6 298.3 32.9 296.9 32.3 293.2L30.6 283 28.9 293.2C28.3 297 23.6 298.3 21 295.5L14.1 287.9 18.2 297.4C19.7 300.9 16.5 304.6 12.8 303.6L2.8 300.9 11.4 306.7C14.6 308.8 13.9 313.7 10.2 314.8L0.4 317.9 10.7 318.1C14.5 318.1 16.5 322.6 14.1 325.6L7.5 333.6 16.3 328.2C19.6 326.2 23.7 328.9 23.2 332.7L22 342.9 26.5 333.6C26.6 333.4 26.7 333.2 26.9 333 26.9 333 26.9 333 26.9 332.8 26.9 332.5 27.1 332.2 27.4 332.1L27.6 332.1C28.7 332.1 31.6 332.1 34.2 330.3 34.4 330.1 34.8 330.2 35 330.4 35.2 330.6 35.1 331 34.9 331.2 32.5 333 29.9 333.3 28.4 333.3 26.9 333.3 27.9 333.3 27.6 333.3 27.4 333.3 27.2 333.3 27.1 333.1L27.1 333.1C27.1 333.2 27.2 333.6 29 333.7 29 333.7 29.9 334.3 30.7 334.3 31.5 334.3 32.4 333.8 32.4 333.7 34.1 333.6 34.1 333.3 34.1 333.3L34.1 332.8C34.4 333 34.6 333.3 34.7 333.6L39.2 342.9 38 332.7C37.5 328.9 41.7 326.3 44.9 328.2L53.7 333.6 47.1 325.6C44.7 322.7 46.7 318.2 50.5 318.1L50.5 318.1ZM35.1 328.7C31.8 330.8 29 331 27.7 331 26.4 331 26.8 331 26.8 331 26.5 331 26.3 330.7 26.3 330.3 26.3 330 26.7 329.8 27 329.8 27 329.8 30.3 330.4 34.5 327.7 34.8 327.5 35.1 327.7 35.3 327.9 35.5 328.1 35.3 328.5 35.1 328.7L35.1 328.7ZM35.5 326.3C31.7 328.4 29 328.4 27.4 328.4 25.8 328.4 26.4 328.4 26.4 328.4 26.1 328.4 25.9 328.1 25.9 327.7 25.9 327.3 26.2 327.2 26.5 327.2 26.5 327.2 30 328 34.9 325.3 35.2 325.1 35.5 325.3 35.7 325.5 35.8 325.8 35.7 326.1 35.5 326.3ZM36.8 322C36 323.1 35.5 324.2 34.9 325.2 33.9 325.5 32.3 325.8 30.7 325.8 29.1 325.8 27.9 325.6 27 325.4 26.4 324.4 25.9 323.3 25 322.1 24.1 321.4 23.3 320.6 22.7 319.6 22.5 319.4 22.4 319.2 22.3 318.9 21.4 317.3 20.9 315.4 20.9 313.4 20.9 307.5 25.4 302.6 31 302.6 36.6 302.6 41.1 307.4 41.1 313.4 41.1 319.4 39.5 320.1 37 322L37 322Z" stroke="none" stroke-width="1" stroke-linecap="butt" stroke-linejoin="miter" stroke-miterlimit="4" fill="#FFFFFF" fill-opacity="0.76"/></g><g><path d="M19.3 19.7 42.4 19.7 31 15.7 19.3 19.7Z" stroke="none" stroke-width="1" stroke-linecap="butt" stroke-linejoin="miter" stroke-miterlimit="4" fill="#FFFFFF" fill-opacity="0.76"/><path d="M30.7 7C16.3 7 4.6 18.7 4.6 33.1 4.6 47.5 16.3 59.2 30.7 59.2 45.1 59.2 56.8 47.5 56.8 33.1 56.8 18.7 45.2 7 30.7 7ZM12.2 22.8 49.7 22.8 49.7 25.4C49.8 25.4 12.4 25.4 12.4 25.4 12.4 25.4 12.3 22.8 12.3 22.8ZM50.1 45.1 50.1 46.6 45.6 46.6 45.6 45.1 50.1 45.1ZM46 44.3 46 35.5 46.2 26.7 49.4 26.7 49.6 35.6 49.6 44.3 46 44.3ZM44.8 45.1 44.8 46.6 40.3 46.6 40.3 45.1 44.8 45.1ZM40.6 44.3 40.6 35.5 40.8 26.7 44 26.7 44.2 35.6 44.2 44.3 40.6 44.3ZM39.7 45.1 39.7 46.6 35.2 46.6 35.2 45.1 39.7 45.1ZM35.5 44.3 35.5 26.7 38.8 26.7 39 35.6 39 44.3 35.5 44.3ZM27.8 45.1 27.8 46.6 23.3 46.6 23.3 45.1 27.8 45.1ZM23.7 44.3 23.7 26.7 27 26.7 27.2 35.6 27.2 44.3 23.7 44.3ZM22.4 45.1 22.4 46.6 17.9 46.6 17.9 45.1 22.4 45.1ZM18.3 44.3 18.3 26.7 21.6 26.7 21.8 35.6 21.8 44.3C21.8 44.3 18.2 44.3 18.3 44.3ZM17.3 45.1 17.3 46.6 12.8 46.6 12.8 45.1 17.3 45.1ZM13.2 44.3 13.2 26.7 16.5 26.7 16.7 35.6 16.7 44.3 13.1 44.3ZM50.1 49.7 12.5 49.7 12.5 47.1 50.2 47.1 50.2 49.7ZM11.2 22.1 11.2 19.7 11.7 19.7 30.8 12.3 49.8 19.7 50.7 19.7 50.7 22.1 11.2 22.1Z" stroke="none" stroke-width="1" stroke-linecap="butt" stroke-linejoin="miter" stroke-miterlimit="4" fill="#FFFFFF" fill-opacity="0.76"/></g><g><path d="M34.8 158.9C29.6 156 23 157.9 20.1 163.2 17.2 168.5 19.1 175 24.4 177.9 29.7 180.8 36.2 178.9 39.1 173.6 42 168.3 40.1 161.8 34.8 158.9Z" stroke="none" stroke-width="1" stroke-linecap="butt" stroke-linejoin="miter" stroke-miterlimit="4" fill="none" fill-opacity="0.76"/><path d="M29.6 154.3C21.8 154.3 15.5 160.6 15.5 168.4 15.5 176.2 21.8 182.4 29.6 182.4 37.4 182.4 43.7 176.1 43.7 168.4 43.7 160.7 37.4 154.4 29.6 154.3ZM39 173.6C36.1 178.8 29.5 180.8 24.3 177.9 19.1 175 17.1 168.4 20 163.2 22.9 158 29.5 156 34.7 158.9 39.9 161.8 41.9 168.4 39 173.6Z" stroke="none" stroke-width="1" stroke-linecap="butt" stroke-linejoin="miter" stroke-miterlimit="4" fill="#FFFFFF" fill-opacity="0.76"/><path d="M49.7 156.2 29.1 144.8 9 157 9.5 180.5 30.1 191.8 50.2 179.6C50.2 179.6 49.7 156.1 49.7 156.1ZM29.6 183.8C21.1 183.8 14.1 176.9 14.1 168.3 14.1 159.7 21 152.8 29.6 152.8 38.2 152.8 45.1 159.7 45.1 168.3 45.1 176.9 38.2 183.8 29.6 183.8Z" stroke="none" stroke-width="1" stroke-linecap="butt" stroke-linejoin="miter" stroke-miterlimit="4" fill="#FFFFFF" fill-opacity="0.76"/></g></svg>