<svg viewBox="0 0 1374 779.32" xmlns="http://www.w3.org/2000/svg" xmlns:xlink="http://www.w3.org/1999/xlink" id="Layer_1" overflow="hidden"><defs><clipPath id="clippath"><rect x="0.33" y="0" width="1373.13" height="778.76" fill="none"/></clipPath></defs><g clip-path="url(#clippath)"><g><path d="M-511.92 1237.03C-511.92 853.02-230.34 571.49 168.98 571.49 504.35 571.49 755.2 771.15 821.76 1062.99L576.01 1062.99C514.56 901.66 366.09 796.78 168.98 796.78-92.13 796.78-266.17 981.03-266.17 1237.03-266.17 1493.03-92.13 1677.28 168.98 1677.28 366.09 1677.28 514.56 1572.4 576.01 1411.07L821.76 1411.07C755.21 1702.91 504.35 1902.57 168.98 1902.57-230.34 1902.57-511.92 1621.04-511.92 1237.03Z" stroke="none" stroke-width="1" stroke-linecap="butt" stroke-linejoin="miter" stroke-miterlimit="4" fill="#FFFFFF" fill-opacity="0.3"/><path d="M1030.11 106.38C1098.59 211.25 1188.14 300.8 1293 369.28 1188.13 437.76 1098.58 527.31 1030.11 632.18 961.63 527.31 872.07 437.76 767.2 369.28 872.07 300.8 961.63 211.25 1030.11 106.38M1030.11-300.27C988.29 49.9 710.73 327.46 360.56 369.28 710.72 411.1 988.29 688.66 1030.11 1038.83 1071.92 688.66 1349.5 411.1 1699.66 369.28 1349.5 327.46 1071.92 49.9 1030.11-300.27L1030.11-300.27Z" stroke="none" stroke-width="1" stroke-linecap="butt" stroke-linejoin="miter" stroke-miterlimit="4" fill="#FFFFFF" fill-opacity="0.3"/></g></g></svg>