<svg viewBox="0 0 96 96" xmlns="http://www.w3.org/2000/svg" xmlns:xlink="http://www.w3.org/1999/xlink" id="Icons_UiUx" overflow="hidden"><style>
.MsftOfcThm_Accent1_Fill_v2 {
 fill:#01A9DB; 
}
.MsftOfcThm_Accent1_Stroke_v2 {
 stroke:#01A9DB; 
}
</style>
<path d="M34.5 43.5C34.5 51.5 41 58 49 58 57 58 63.5 51.5 63.5 43.5 63.5 35.5 57 29 49 29 41 29 34.5 35.5 34.5 43.5ZM57.1 47.8 57.1 50.9 40.8 50.9 40.8 47.8C40.8 47.2 41.1 46.6 41.6 46.2 42.8 45.3 44.1 44.7 45.6 44.3 46.7 44 47.8 43.8 49 43.8 50.1 43.8 51.3 44 52.4 44.3 53.8 44.7 55.2 45.3 56.4 46.2 56.8 46.6 57.1 47.2 57.1 47.8ZM49 34.6C51.2 34.6 53.1 36.4 53.1 38.7L53.1 38.7C53.1 40.9 51.3 42.8 49 42.8 46.8 42.8 44.9 41 44.9 38.7 44.9 36.4 46.7 34.6 49 34.6Z" class="MsftOfcThm_Accent1_Stroke_v2 MsftOfcThm_Accent1_Fill_v2" stroke="#01A9DB" stroke-width="0.999917" stroke-linecap="butt" stroke-linejoin="miter" stroke-miterlimit="4" stroke-opacity="1" fill="#01A9DB" fill-opacity="1"/><rect x="91" y="32" width="3" height="3" class="MsftOfcThm_Accent1_Stroke_v2 MsftOfcThm_Accent1_Fill_v2" stroke="#01A9DB" stroke-width="0.999917" stroke-linecap="butt" stroke-linejoin="miter" stroke-miterlimit="4" stroke-opacity="1" fill="#01A9DB" fill-opacity="1"/><rect x="73.9" y="32" width="2.9" height="3" class="MsftOfcThm_Accent1_Stroke_v2 MsftOfcThm_Accent1_Fill_v2" stroke="#01A9DB" stroke-width="0.999917" stroke-linecap="butt" stroke-linejoin="miter" stroke-miterlimit="4" stroke-opacity="1" fill="#01A9DB" fill-opacity="1"/><rect x="79.7" y="32" width="2.9" height="3" class="MsftOfcThm_Accent1_Stroke_v2 MsftOfcThm_Accent1_Fill_v2" stroke="#01A9DB" stroke-width="0.999917" stroke-linecap="butt" stroke-linejoin="miter" stroke-miterlimit="4" stroke-opacity="1" fill="#01A9DB" fill-opacity="1"/><rect x="85.4" y="32" width="2.9" height="3" class="MsftOfcThm_Accent1_Stroke_v2 MsftOfcThm_Accent1_Fill_v2" stroke="#01A9DB" stroke-width="0.999917" stroke-linecap="butt" stroke-linejoin="miter" stroke-miterlimit="4" stroke-opacity="1" fill="#01A9DB" fill-opacity="1"/><rect x="68" y="32" width="3" height="3" class="MsftOfcThm_Accent1_Stroke_v2 MsftOfcThm_Accent1_Fill_v2" stroke="#01A9DB" stroke-width="0.999917" stroke-linecap="butt" stroke-linejoin="miter" stroke-miterlimit="4" stroke-opacity="1" fill="#01A9DB" fill-opacity="1"/><rect x="68" y="20" width="3" height="3" class="MsftOfcThm_Accent1_Stroke_v2 MsftOfcThm_Accent1_Fill_v2" stroke="#01A9DB" stroke-width="0.999917" stroke-linecap="butt" stroke-linejoin="miter" stroke-miterlimit="4" stroke-opacity="1" fill="#01A9DB" fill-opacity="1"/><rect x="68" y="26" width="3" height="3" class="MsftOfcThm_Accent1_Stroke_v2 MsftOfcThm_Accent1_Fill_v2" stroke="#01A9DB" stroke-width="0.999917" stroke-linecap="butt" stroke-linejoin="miter" stroke-miterlimit="4" stroke-opacity="1" fill="#01A9DB" fill-opacity="1"/><rect x="68" y="14" width="3" height="3" class="MsftOfcThm_Accent1_Stroke_v2 MsftOfcThm_Accent1_Fill_v2" stroke="#01A9DB" stroke-width="0.999917" stroke-linecap="butt" stroke-linejoin="miter" stroke-miterlimit="4" stroke-opacity="1" fill="#01A9DB" fill-opacity="1"/><rect x="68" y="8" width="3" height="3" class="MsftOfcThm_Accent1_Stroke_v2 MsftOfcThm_Accent1_Fill_v2" stroke="#01A9DB" stroke-width="0.999917" stroke-linecap="butt" stroke-linejoin="miter" stroke-miterlimit="4" stroke-opacity="1" fill="#01A9DB" fill-opacity="1"/><rect x="79.7" y="8" width="2.9" height="3" class="MsftOfcThm_Accent1_Stroke_v2 MsftOfcThm_Accent1_Fill_v2" stroke="#01A9DB" stroke-width="0.999917" stroke-linecap="butt" stroke-linejoin="miter" stroke-miterlimit="4" stroke-opacity="1" fill="#01A9DB" fill-opacity="1"/><rect x="85.4" y="8" width="2.9" height="3" class="MsftOfcThm_Accent1_Stroke_v2 MsftOfcThm_Accent1_Fill_v2" stroke="#01A9DB" stroke-width="0.999917" stroke-linecap="butt" stroke-linejoin="miter" stroke-miterlimit="4" stroke-opacity="1" fill="#01A9DB" fill-opacity="1"/><rect x="73.9" y="8" width="2.9" height="3" class="MsftOfcThm_Accent1_Stroke_v2 MsftOfcThm_Accent1_Fill_v2" stroke="#01A9DB" stroke-width="0.999917" stroke-linecap="butt" stroke-linejoin="miter" stroke-miterlimit="4" stroke-opacity="1" fill="#01A9DB" fill-opacity="1"/><rect x="91" y="8" width="3" height="3" class="MsftOfcThm_Accent1_Stroke_v2 MsftOfcThm_Accent1_Fill_v2" stroke="#01A9DB" stroke-width="0.999917" stroke-linecap="butt" stroke-linejoin="miter" stroke-miterlimit="4" stroke-opacity="1" fill="#01A9DB" fill-opacity="1"/><rect x="91" y="14" width="3" height="3" class="MsftOfcThm_Accent1_Stroke_v2 MsftOfcThm_Accent1_Fill_v2" stroke="#01A9DB" stroke-width="0.999917" stroke-linecap="butt" stroke-linejoin="miter" stroke-miterlimit="4" stroke-opacity="1" fill="#01A9DB" fill-opacity="1"/><rect x="91" y="20" width="3" height="3" class="MsftOfcThm_Accent1_Stroke_v2 MsftOfcThm_Accent1_Fill_v2" stroke="#01A9DB" stroke-width="0.999917" stroke-linecap="butt" stroke-linejoin="miter" stroke-miterlimit="4" stroke-opacity="1" fill="#01A9DB" fill-opacity="1"/><rect x="91" y="26" width="3" height="3" class="MsftOfcThm_Accent1_Stroke_v2 MsftOfcThm_Accent1_Fill_v2" stroke="#01A9DB" stroke-width="0.999917" stroke-linecap="butt" stroke-linejoin="miter" stroke-miterlimit="4" stroke-opacity="1" fill="#01A9DB" fill-opacity="1"/><path d="M70 60.5C70.1 60.7 70.3 60.8 70.5 60.8 70.6 60.8 70.7 60.7 70.8 60.5L72.3 56.4 77 61.1 79.1 59 74.4 54.3 78.5 52.8C78.7 52.7 78.8 52.5 78.8 52.3 78.8 52.2 78.7 52.1 78.5 52L66.6 48C66.6 48 66.5 48 66.5 48L66.5 48C66.3 48 66.1 48.2 66.1 48.4 66.1 48.4 66.1 48.5 66.1 48.5L70 60.5Z" class="MsftOfcThm_Accent1_Stroke_v2 MsftOfcThm_Accent1_Fill_v2" stroke="#01A9DB" stroke-width="0.999917" stroke-linecap="butt" stroke-linejoin="miter" stroke-miterlimit="4" stroke-opacity="1" fill="#01A9DB" fill-opacity="1"/><path d="M29 24 2 24 2 45 29 45 29 24ZM26 42 5 42 5 27 26 27 26 42Z" class="MsftOfcThm_Accent1_Stroke_v2 MsftOfcThm_Accent1_Fill_v2" stroke="#01A9DB" stroke-width="0.999917" stroke-linecap="butt" stroke-linejoin="miter" stroke-miterlimit="4" stroke-opacity="1" fill="#01A9DB" fill-opacity="1"/><rect x="9" y="29.5" width="12" height="3" class="MsftOfcThm_Accent1_Stroke_v2 MsftOfcThm_Accent1_Fill_v2" stroke="#01A9DB" stroke-width="0.999917" stroke-linecap="butt" stroke-linejoin="miter" stroke-miterlimit="4" stroke-opacity="1" fill="#01A9DB" fill-opacity="1"/><rect x="9" y="35.5" width="8" height="3" class="MsftOfcThm_Accent1_Stroke_v2 MsftOfcThm_Accent1_Fill_v2" stroke="#01A9DB" stroke-width="0.999917" stroke-linecap="butt" stroke-linejoin="miter" stroke-miterlimit="4" stroke-opacity="1" fill="#01A9DB" fill-opacity="1"/><path d="M85 15 73 15 73 21 83 21 83 30 89 30 89 19C89 16.8 87.2 15 85 15Z" class="MsftOfcThm_Accent1_Stroke_v2 MsftOfcThm_Accent1_Fill_v2" stroke="#01A9DB" stroke-width="0.999917" stroke-linecap="butt" stroke-linejoin="miter" stroke-miterlimit="4" stroke-opacity="1" fill="#01A9DB" fill-opacity="1"/><path d="M83 65 15 65 15 49 9 49 9 67C9 69.2 10.8 71 13 71L41 71 41 77 31 77 31 83 67 83 67 77 57 77 57 71 85 71C87.2 71 89 69.2 89 67L89 37 83 37 83 65Z" class="MsftOfcThm_Accent1_Stroke_v2 MsftOfcThm_Accent1_Fill_v2" stroke="#01A9DB" stroke-width="0.999917" stroke-linecap="butt" stroke-linejoin="miter" stroke-miterlimit="4" stroke-opacity="1" fill="#01A9DB" fill-opacity="1"/><path d="M66 15 13 15C10.8 15 9 16.8 9 19L9 21 66 21 66 15Z" class="MsftOfcThm_Accent1_Stroke_v2 MsftOfcThm_Accent1_Fill_v2" stroke="#01A9DB" stroke-width="0.999917" stroke-linecap="butt" stroke-linejoin="miter" stroke-miterlimit="4" stroke-opacity="1" fill="#01A9DB" fill-opacity="1"/></svg>