<svg viewBox="0 0 1374 779.32" xmlns="http://www.w3.org/2000/svg" xmlns:xlink="http://www.w3.org/1999/xlink" id="Layer_1" overflow="hidden"><defs><clipPath id="clippath"><rect x="0.33" y="0" width="1373.13" height="778.76" fill="none"/></clipPath></defs><g clip-path="url(#clippath)"><g><path d="M-845.33 1237.03C-845.33 853.02-563.75 571.49-164.43 571.49 170.94 571.49 421.79 771.15 488.35 1062.99L242.6 1062.99C181.15 901.66 32.68 796.78-164.43 796.78-425.54 796.78-599.58 981.03-599.58 1237.03-599.58 1493.03-425.54 1677.28-164.43 1677.28 32.68 1677.28 181.15 1572.4 242.6 1411.07L488.35 1411.07C421.8 1702.91 170.94 1902.57-164.43 1902.57-563.75 1902.57-845.33 1621.04-845.33 1237.03Z" stroke="none" stroke-width="1" stroke-linecap="butt" stroke-linejoin="miter" stroke-miterlimit="4" fill="#FFFFFF" fill-opacity="0.41797"/><path d="M696.71 106.38C765.19 211.25 854.74 300.8 959.6 369.28 854.73 437.76 765.18 527.31 696.71 632.18 628.23 527.31 538.67 437.76 433.8 369.28 538.67 300.8 628.23 211.25 696.71 106.38M696.71-300.27C654.88 49.9 377.32 327.46 27.16 369.28 377.32 411.1 654.89 688.66 696.71 1038.83 738.52 688.66 1016.1 411.1 1366.26 369.28 1016.1 327.46 738.52 49.9 696.71-300.27L696.71-300.27Z" stroke="none" stroke-width="1" stroke-linecap="butt" stroke-linejoin="miter" stroke-miterlimit="4" fill="#FFFFFF" fill-opacity="0.41797"/></g></g></svg>