<svg viewBox="0 0 1374 779.32" xmlns="http://www.w3.org/2000/svg" xmlns:xlink="http://www.w3.org/1999/xlink" id="Layer_1" overflow="hidden"><defs><clipPath id="clippath"><rect x="0.33" y="0" width="1373.13" height="778.76" fill="none"/></clipPath></defs><g clip-path="url(#clippath)"><g><path d="M-837.77 980.13C-837.77 596.12-556.19 314.59-156.87 314.59 178.5 314.59 429.35 514.25 495.91 806.09L250.16 806.09C188.71 644.76 40.24 539.88-156.87 539.88-417.98 539.88-592.02 724.13-592.02 980.13-592.02 1236.13-417.98 1420.38-156.87 1420.38 40.24 1420.38 188.71 1315.5 250.16 1154.17L495.91 1154.17C429.36 1446.01 178.5 1645.67-156.87 1645.67-556.19 1645.67-837.77 1364.14-837.77 980.13Z" fill="#FFFFFF" fill-opacity="0.31262"/><path d="M704.26-150.52C772.74-45.65 862.29 43.9 967.15 112.38 862.28 180.86 772.73 270.41 704.26 375.28 635.78 270.41 546.22 180.86 441.35 112.38 546.22 43.9 635.78-45.65 704.26-150.52M704.26-557.17C662.44-207.01 384.88 70.56 34.71 112.38 384.87 154.2 662.44 431.76 704.26 781.93 746.07 431.76 1023.65 154.2 1373.81 112.38 1023.65 70.56 746.07-207 704.26-557.17L704.26-557.17Z" fill="#FFFFFF" fill-opacity="0.31262"/></g></g></svg>