<svg viewBox="0 0 96 96" xmlns="http://www.w3.org/2000/svg" xmlns:xlink="http://www.w3.org/1999/xlink" id="Icons_ChatBubble_LTR_M" overflow="hidden"><style>
.MsftOfcThm_Accent1_Fill_v2 {
 fill:#01A9DB; 
}
</style>
<g id="Icons"><path d="M78 19C79.1046 19 80 19.8954 80 21L80 61C80 62.1046 79.1046 63 78 63L66 63 66 74.172 55.914 64.086 55.328 63.5 18 63.5C16.8954 63.5 16 62.6046 16 61.5L16 21C16 19.8954 16.8954 19 18 19L78 19M78 17 18 17C15.7909 17 14 18.7909 14 21L14 61.5C14 63.7091 15.7909 65.5 18 65.5L54.5 65.5 68 79 68 65 78 65C80.2091 65 82 63.2091 82 61L82 21C82 18.7909 80.2091 17 78 17Z" class="MsftOfcThm_Accent1_Fill_v2" stroke="none" stroke-width="1" stroke-linecap="butt" stroke-linejoin="miter" stroke-miterlimit="4" fill="#01A9DB" fill-opacity="1"/><circle cx="64" cy="41" r="3" class="MsftOfcThm_Accent1_Fill_v2" stroke="none" stroke-width="1" stroke-linecap="butt" stroke-linejoin="miter" stroke-miterlimit="4" fill="#01A9DB" fill-opacity="1"/><circle cx="48" cy="41" r="3" class="MsftOfcThm_Accent1_Fill_v2" stroke="none" stroke-width="1" stroke-linecap="butt" stroke-linejoin="miter" stroke-miterlimit="4" fill="#01A9DB" fill-opacity="1"/><circle cx="32" cy="41" r="3" class="MsftOfcThm_Accent1_Fill_v2" stroke="none" stroke-width="1" stroke-linecap="butt" stroke-linejoin="miter" stroke-miterlimit="4" fill="#01A9DB" fill-opacity="1"/></g></svg>