<svg viewBox="0 0 64 64" xmlns="http://www.w3.org/2000/svg" xmlns:xlink="http://www.w3.org/1999/xlink" id="a" overflow="hidden"><defs></defs><path d="M51.6 16.02C47.77 12.38 41.84 12.38 38.1 16.02L33.22 20.9C32.45 21.67 31.31 21.67 30.54 20.9L25.66 16.02C23.84 14.2 21.35 13.15 18.77 13.15 13.31 13.15 8.91 17.55 8.91 22.91 8.91 25.49 9.96 27.98 11.78 29.9L31.88 50 51.98 29.9C55.71 25.98 55.52 19.75 51.6 16.02Z" stroke-width="0" fill="#FF538A"/><path d="M19.45 20.8C17.82 20.8 16.58 22.04 16.58 23.67 16.58 24.72 15.72 25.58 14.67 25.58 13.62 25.58 12.76 24.72 12.76 23.67 12.76 19.94 15.73 16.97 19.46 16.97 20.51 16.97 21.37 17.83 21.37 18.88 21.37 19.93 20.51 20.79 19.46 20.79Z" stroke-width="0" fill="#FF538A"/><path d="M54.67 13.34C49.31 7.98 40.7 7.98 35.34 13.34L31.8 16.88 28.26 13.34C23 8.36 14.76 8.36 9.5 13.34 4.14 18.51 3.85 27.22 9.12 32.67L30.56 54.11C30.94 54.49 31.42 54.68 31.9 54.68 32.38 54.68 32.86 54.49 33.24 54.11L54.68 32.67C60.04 27.31 60.04 18.7 54.68 13.34Z" stroke-width="0" fill="#8A033E"/><path d="M31.89 49.99 11.79 29.89C9.97 28.07 8.92 25.58 8.92 22.9 8.92 17.44 13.32 13.14 18.78 13.14 21.36 13.14 23.85 14.19 25.67 16.01L30.55 20.89C31.32 21.66 32.46 21.66 33.23 20.89L38.11 16.01C41.94 12.37 47.87 12.37 51.61 16.01 55.53 19.74 55.73 25.96 51.99 29.89L31.89 49.99Z" stroke-width="0" fill="#FF538A"/><path d="M19.45 16.97C15.72 16.97 12.75 19.94 12.75 23.67 12.75 24.72 13.61 25.58 14.66 25.58 15.71 25.58 16.57 24.72 16.57 23.67 16.57 22.04 17.81 20.8 19.44 20.8 20.49 20.8 21.35 19.94 21.35 18.89 21.35 17.84 20.49 16.98 19.44 16.98Z" stroke-width="0" fill="#FFFFFF"/></svg>