<svg viewBox="0 0 64 64" xmlns="http://www.w3.org/2000/svg" xmlns:xlink="http://www.w3.org/1999/xlink" id="a" overflow="hidden"><path d="M11 34.18 18.59 26.59C19.37 25.81 20.63 25.81 21.41 26.59L28 33.12 39.17 22 30 22C28.9 22 28 21.1 28 20 28 18.9 28.9 18 30 18L44 18C45.1 18 46 18.9 46 20L46 34C46 35.1 45.1 36 44 36 42.9 36 42 35.1 42 34L42 24.84 29.47 37.36C28.69 38.14 27.43 38.14 26.65 37.36L20 30.82 11 39.82 11 53 18 53 18 47C18 45.9 18.9 45 20 45 21.1 45 22 45.9 22 47L22 53 30 53 30 47C30 45.9 30.9 45 32 45 33.1 45 34 45.9 34 47L34 53 42 53 42 47C42 45.9 42.9 45 44 45 45.1 45 46 45.9 46 47L46 53 53 53 53 11 11 11 11 34.18Z" fill="#04E1CB"/><path d="M26.65 37.36C27.43 38.14 28.69 38.14 29.47 37.36L42 24.84 42 34C42 35.1 42.9 36 44 36 45.1 36 46 35.1 46 34L46 20C46 18.9 45.1 18 44 18L30 18C28.9 18 28 18.9 28 20 28 21.1 28.9 22 30 22L39.17 22 28 33.12 21.41 26.59C20.63 25.81 19.37 25.81 18.59 26.59L11 34.18 11 39.82 20 30.82 26.65 37.36Z" fill="#FFFFFF"/><path d="M55 7 9 7C7.9 7 7 7.9 7 9L7 55C7 56.1 7.9 57 9 57L55 57C56.1 57 57 56.1 57 55L57 9C57 7.9 56.1 7 55 7ZM53 53 46 53 46 47C46 45.9 45.1 45 44 45 42.9 45 42 45.9 42 47L42 53 34 53 34 47C34 45.9 33.1 45 32 45 30.9 45 30 45.9 30 47L30 53 22 53 22 47C22 45.9 21.1 45 20 45 18.9 45 18 45.9 18 47L18 53 11 53 11 11 53 11 53 53Z" fill="#0B827C"/></svg>