<svg viewBox="0 0 35.75 35.75" xmlns="http://www.w3.org/2000/svg" xmlns:xlink="http://www.w3.org/1999/xlink" id="Layer_2" overflow="hidden"><defs/><g id="Layer_1-2"><circle cx="17.88" cy="17.88" r="16.38" stroke="#01A9DB" stroke-width="3" stroke-miterlimit="10" fill="#01A9DB"/><g><path d="M10.5 9.21 25.46 9.21 18.04 6.58 10.5 9.21Z" fill="#172A44"/><path d="M17.88 0.95C8.53 0.95 0.95 8.53 0.95 17.88 0.95 27.23 8.53 34.81 17.88 34.81 27.23 34.81 34.81 27.23 34.81 17.88 34.81 8.53 27.22 0.95 17.88 0.95ZM5.85 11.23 30.12 11.23 30.2 12.89 5.94 12.89 5.86 11.23ZM30.45 25.63 30.45 26.57 27.52 26.57 27.52 25.63 30.45 25.63ZM27.76 25.13 27.76 19.4 27.86 13.7 29.92 13.7 30.06 19.49 30.06 25.13 27.76 25.13ZM26.97 25.63 26.97 26.57 24.04 26.57 24.04 25.63 26.97 25.63ZM24.28 25.13 24.28 19.4 24.38 13.7 26.44 13.7 26.58 19.49 26.58 25.13 24.28 25.13ZM23.65 25.63 23.65 26.57 20.72 26.57 20.72 25.63 23.65 25.63ZM20.97 25.13 20.97 19.4 21.07 13.7 23.13 13.7 23.27 19.49 23.27 25.13 20.97 25.13ZM15.99 25.63 15.99 26.57 13.06 26.57 13.06 25.63 15.99 25.63ZM13.3 25.13 13.3 19.4 13.4 13.7 15.46 13.7 15.6 19.49 15.6 25.13 13.3 25.13ZM12.51 25.63 12.51 26.57 9.58 26.57 9.58 25.63 12.51 25.63ZM9.82 25.13 9.82 19.4 9.92 13.7 11.98 13.7 12.12 19.49 12.12 25.13 9.82 25.13ZM9.2 25.63 9.2 26.57 6.27 26.57 6.27 25.63 9.2 25.63ZM6.51 25.13 6.51 19.4 6.61 13.7 8.67 13.7 8.81 19.49 8.81 25.13 6.51 25.13ZM30.45 28.65 6.04 28.65 6.04 26.95 30.45 26.95 30.45 28.65ZM5.26 10.78 5.26 9.21 5.58 9.21 17.97 4.42 30.3 9.21 30.89 9.21 30.89 10.78 5.26 10.78Z" fill="#172A44"/></g></g></svg>