<svg viewBox="0 0 64 64" xmlns="http://www.w3.org/2000/svg" xmlns:xlink="http://www.w3.org/1999/xlink" id="a" overflow="hidden"><defs/><path d="M32 9.25C19.49 9.25 9.25 19.49 9.25 32 9.25 39.49 12.85 46.12 18.54 50.29 19.2 45.93 21.86 42.23 25.65 40.24 23.19 38.34 21.57 35.31 21.57 31.99 21.57 26.21 26.21 21.57 31.99 21.57 37.77 21.57 42.41 26.21 42.41 31.99 42.41 35.31 40.8 38.34 38.33 40.24 42.03 42.23 44.77 45.93 45.44 50.29 51.13 46.12 54.73 39.49 54.73 32 54.73 19.49 44.49 9.25 31.98 9.25Z" stroke-width="0" fill="#8A8ED1"/><path d="M15.98 22.81C16.64 21.67 18.06 21.29 19.2 21.96 20.34 22.62 20.72 24.04 20.05 25.18 19.58 25.94 18.82 26.41 17.97 26.41 17.59 26.41 17.12 26.32 16.83 26.13 15.69 25.37 15.31 23.95 15.98 22.81Z" stroke-width="0" fill="#8A8ED1"/><path d="M13.52 32.09C13.52 30.76 14.56 29.72 15.89 29.72 17.22 29.72 18.26 30.76 18.26 32.09 18.26 33.42 17.22 34.46 15.89 34.46 14.56 34.37 13.52 33.32 13.52 32.09Z" stroke-width="0" fill="#8A8ED1"/><path d="M19.21 42.14C18.83 42.33 18.45 42.42 17.98 42.42 17.13 42.42 16.37 41.95 15.89 41.28 15.23 40.14 15.61 38.72 16.74 38.06 17.87 37.4 19.3 37.78 19.96 38.91 20.72 40.05 20.34 41.47 19.2 42.13Z" stroke-width="0" fill="#8A8ED1"/><path d="M25.08 20.15C24.7 20.34 24.32 20.43 23.85 20.43 23 20.43 22.24 20.05 21.77 19.29 21.11 18.15 21.49 16.73 22.62 16.07 23.75 15.41 25.18 15.79 25.84 16.92 26.6 17.96 26.22 19.48 25.08 20.14Z" stroke-width="0" fill="#8A8ED1"/><path d="M32 18.26C31.94 18.26 31.94 18.26 32 18.26 30.58 18.26 29.54 17.22 29.54 15.89 29.54 14.56 30.58 13.52 31.91 13.52 33.24 13.52 34.28 14.56 34.28 15.89 34.37 17.22 33.33 18.26 32.01 18.26Z" stroke-width="0" fill="#8A8ED1"/><path d="M42.14 19.21C41.67 19.97 40.91 20.35 40.05 20.35 39.67 20.35 39.2 20.26 38.91 20.07 37.77 19.41 37.39 17.98 38.06 16.85 38.72 15.71 40.14 15.33 41.28 16 42.32 16.66 42.7 18.09 42.13 19.22Z" stroke-width="0" fill="#8A8ED1"/><path d="M44.79 21.86C45.93 21.2 47.35 21.58 48.01 22.71 48.67 23.85 48.29 25.27 47.16 25.93 46.78 26.12 46.4 26.21 46.02 26.21 45.17 26.21 44.41 25.83 43.93 25.07 43.27 23.93 43.65 22.51 44.78 21.85Z" stroke-width="0" fill="#8A8ED1"/><path d="M48.02 41.19C47.55 41.95 46.79 42.42 45.93 42.42 45.55 42.42 45.08 42.33 44.79 42.14 43.65 41.48 43.27 40.06 43.94 38.92 44.6 37.78 46.03 37.4 47.16 38.07 48.3 38.64 48.68 40.06 48.01 41.2Z" stroke-width="0" fill="#8A8ED1"/><path d="M48.11 34.37C46.78 34.37 45.74 33.33 45.74 32 45.74 30.67 46.78 29.63 48.11 29.63 49.44 29.63 50.48 30.67 50.48 32 50.48 33.33 49.44 34.37 48.11 34.37Z" stroke-width="0" fill="#8A8ED1"/><path d="M32 38.63C35.66 38.63 38.63 35.66 38.63 32 38.63 28.34 35.66 25.37 32 25.37 28.34 25.37 25.37 28.34 25.37 32 25.37 35.66 28.34 38.63 32 38.63Z" stroke-width="0" fill="#FFFFFF"/><path d="M32 42.52C26.6 42.52 22.14 46.97 22.14 52.38L22.14 52.47C25.08 53.89 28.49 54.74 32 54.74 35.51 54.74 38.92 53.89 41.86 52.47L41.86 52.38C41.86 46.88 37.41 42.52 32 42.52Z" stroke-width="0" fill="#FFFFFF"/><path d="M32 58.54C46.66 58.54 58.54 46.66 58.54 32 58.54 17.34 46.66 5.46 32 5.46 17.34 5.46 5.46 17.34 5.46 32 5.46 46.66 17.34 58.54 32 58.54Z" stroke-width="0" fill="#321D71"/><path d="M41.86 52.47C38.92 53.89 35.51 54.74 32 54.74 28.49 54.74 25.08 53.89 22.14 52.47L22.14 52.38C22.14 46.98 26.59 42.52 32 42.52 37.41 42.52 41.86 46.97 41.86 52.38L41.86 52.47Z" stroke-width="0" fill="#FFFFFF"/><path d="M32 38.63C35.66 38.63 38.63 35.66 38.63 32 38.63 28.34 35.66 25.37 32 25.37 28.34 25.37 25.37 28.34 25.37 32 25.37 35.66 28.34 38.63 32 38.63Z" stroke-width="0" fill="#FFFFFF"/><path d="M45.46 50.29C44.8 45.93 42.14 42.23 38.35 40.24 40.81 38.34 42.43 35.31 42.43 31.99 42.43 26.21 37.79 21.57 32.01 21.57 26.23 21.57 21.59 26.21 21.59 31.99 21.59 35.31 23.2 38.34 25.67 40.24 21.97 42.23 19.23 45.93 18.56 50.29 12.87 46.12 9.27 39.49 9.27 32 9.27 19.49 19.51 9.25 32.02 9.25 44.53 9.25 54.77 19.49 54.77 32 54.77 39.49 51.17 46.12 45.48 50.29Z" stroke-width="0" fill="#BEC7F6"/><path d="M41.29 15.98C40.15 15.32 38.73 15.7 38.07 16.83 37.41 17.97 37.79 19.39 38.92 20.05 39.3 20.24 39.68 20.33 40.06 20.33 40.91 20.33 41.67 19.95 42.15 19.19 42.72 18.05 42.34 16.63 41.3 15.97Z" stroke-width="0" fill="#FFFFFF"/><path d="M15.89 34.37C17.22 34.37 18.26 33.33 18.26 32 18.26 30.67 17.22 29.63 15.89 29.63 14.56 29.63 13.52 30.67 13.52 32 13.52 33.33 14.56 34.37 15.89 34.37Z" stroke-width="0" fill="#FFFFFF"/><path d="M45.93 26.31C46.31 26.31 46.78 26.22 47.07 26.03 48.21 25.37 48.59 23.94 47.92 22.81 47.26 21.67 45.83 21.29 44.7 21.96 43.56 22.62 43.18 24.04 43.85 25.18 44.32 25.84 45.18 26.32 45.94 26.32Z" stroke-width="0" fill="#FFFFFF"/><path d="M16.84 26.03C17.22 26.22 17.6 26.31 17.98 26.31 18.83 26.31 19.59 25.84 20.06 25.08 20.72 23.94 20.34 22.52 19.21 21.86 18.07 21.2 16.65 21.58 15.99 22.71 15.33 23.84 15.71 25.36 16.84 26.03Z" stroke-width="0" fill="#FFFFFF"/><path d="M47.16 37.97C46.02 37.31 44.6 37.69 43.94 38.82 43.28 39.96 43.66 41.38 44.79 42.04 45.17 42.23 45.55 42.32 45.93 42.32 46.78 42.32 47.54 41.94 48.02 41.09 48.68 40.05 48.3 38.63 47.17 37.96Z" stroke-width="0" fill="#FFFFFF"/><path d="M48.11 29.63C46.78 29.63 45.74 30.67 45.74 32 45.74 33.33 46.78 34.37 48.11 34.37 49.44 34.37 50.48 33.33 50.48 32 50.48 30.67 49.44 29.63 48.11 29.63Z" stroke-width="0" fill="#FFFFFF"/><path d="M32 13.52 31.91 13.52C30.58 13.52 29.54 14.56 29.54 15.89 29.54 17.22 30.58 18.26 31.91 18.26 33.24 18.26 34.28 17.22 34.28 15.89 34.37 14.56 33.33 13.52 32.01 13.52Z" stroke-width="0" fill="#FFFFFF"/><path d="M22.71 15.98C21.57 16.64 21.19 18.07 21.86 19.2 22.33 19.96 23.09 20.34 23.95 20.34 24.33 20.34 24.8 20.25 25.18 20.06 26.32 19.4 26.7 17.97 26.03 16.84 25.27 15.7 23.85 15.32 22.71 15.99Z" stroke-width="0" fill="#FFFFFF"/><path d="M16.84 38.07C15.7 38.73 15.32 40.16 15.99 41.29 16.46 42.05 17.22 42.43 18.07 42.43 18.45 42.43 18.92 42.34 19.3 42.15 20.44 41.49 20.82 40.07 20.15 38.93 19.49 37.79 17.97 37.41 16.83 38.08Z" stroke-width="0" fill="#FFFFFF"/></svg>