<svg viewBox="0 0 52.33 48.88" xmlns="http://www.w3.org/2000/svg" xmlns:xlink="http://www.w3.org/1999/xlink" id="Layer_2" overflow="hidden"><defs></defs><g id="Layer_1-2"><g><rect x="16.17" y="33.67" width="20.13" height="4" fill="#999999"/><path d="M52.33 0 0 0 0 37.67 8.25 37.67 8.25 33.67 4 33.67 4 4 48.33 4 48.33 33.67 44.21 33.67 44.21 37.67 52.33 37.67 52.33 0Z" fill="#999999"/></g><path d="M20.67 44.6 16.3 48.88 42.3 48.88C42.3 48.88 42.3 15.9 42.3 15.9L45.07 18.66 48.08 15.65 40.16 7.72 32.24 15.65 35.25 18.66 38.02 15.9 38.02 44.6 20.68 44.6Z" fill="#07253D"/><path d="M31.61 12 35.98 7.72 9.99 7.72C9.99 7.72 9.99 40.7 9.99 40.7L7.22 37.94 4.21 40.95 12.13 48.88 20.05 40.95 17.04 37.94 14.27 40.7 14.27 12 31.61 12Z" fill="#FB4100"/></g></svg>